<svg width="262" height="27" viewBox="0 0 262 27" fill="none" xmlns="http://www.w3.org/2000/svg">
<g clip-path="url(#clip0)">
<path d="M16.6581 5.73428V7.9117V10.452H19.2153H21.4071V19.452H19.2153H16.6581V21.9923V24.1698H7.59844V21.9923V19.452H5.11433H2.92248V10.452H5.11433H7.6715V7.9117V5.73428H16.6581ZM19.4345 2.83105H4.89515V7.69396H0V22.1375H4.89515V27.0004H19.4345V22.1375H24.3296V7.69396H19.4345V2.83105Z" fill="#FF0044"/>
<path d="M11.9821 14.9522L14.1739 12.7022V8.6377L7.89062 14.9522L14.1739 21.1941V17.1296L11.9821 14.9522Z" fill="#FF0044"/>
<path d="M138.379 3.33887V26.5647H139.767V3.33887H138.379Z" fill="#FF0044"/>
<path d="M31.4165 11.4677V9.43547C31.4895 9.43547 31.5626 9.50805 31.6357 9.50805C31.7818 9.58063 31.9279 9.58063 32.1471 9.58063C32.7316 9.58063 33.17 9.36289 33.3891 8.85482L33.4622 8.70966L30.6128 3.26611H33.0969L34.6312 6.6774H34.7043L35.9463 3.26611H38.4304L35.4349 9.43547C35.0696 10.1613 34.7043 10.7419 34.1928 11.1048C33.7545 11.4677 33.17 11.6855 32.4393 11.6855C32.1471 11.6855 31.8548 11.6855 31.6357 11.6129L31.4165 11.4677Z" fill="white"/>
<path d="M40.1108 11.541V3.33936H42.3758V6.31516H45.3713V3.33936H47.6362V11.541H45.3713V8.42H42.3758V11.541H40.1108Z" fill="white"/>
<path d="M50.4126 11.541V3.33936H52.6045V7.83936L56.1114 3.33936H58.0841V11.541H55.8192V7.04097L52.3122 11.541H50.4126Z" fill="white"/>
<path d="M60.9336 11.541V3.33936H64.5867C65.4634 3.33936 66.194 3.5571 66.7055 3.99258C67.2169 4.42807 67.4361 4.93613 67.4361 5.51677C67.4361 6.09742 67.2169 6.5329 66.7785 6.89581C66.6324 7.04097 66.4132 7.11355 66.194 7.25871C66.4863 7.40387 66.7785 7.47645 66.9977 7.69419C67.5822 8.12968 67.8014 8.63774 67.8014 9.29097C67.8014 9.94419 67.5092 10.4523 66.9977 10.8877C66.4863 11.3232 65.7557 11.541 64.8059 11.541H60.9336ZM63.1254 6.46032H64.3675C64.5867 6.46032 64.8059 6.38774 64.952 6.24258C65.0981 6.09742 65.1712 5.95226 65.1712 5.73452C65.1712 5.51678 65.0981 5.37161 64.952 5.22645C64.8059 5.15387 64.5867 5.08129 64.3675 5.08129H63.1254V6.46032ZM63.1254 9.72645H64.6597C64.952 9.72645 65.0981 9.65387 65.3173 9.50871C65.4634 9.36355 65.5365 9.14581 65.5365 8.92807C65.5365 8.71032 65.4634 8.49258 65.3173 8.34742C65.1712 8.20226 64.952 8.12968 64.6597 8.12968H63.1254V9.72645Z" fill="white"/>
<path d="M70.1392 11.541V3.33936H76.4225V5.29903H72.331V6.46032H75.4727V8.34742H72.331V9.50871H76.4955V11.4684H70.1392V11.541Z" fill="white"/>
<path d="M78.9067 11.541V3.33936H82.6329C83.5096 3.33936 84.2402 3.62968 84.8247 4.13774C85.4092 4.64581 85.7015 5.37161 85.7015 6.17C85.7015 6.96839 85.4092 7.69419 84.8247 8.20226C84.2402 8.71032 83.5096 9.00065 82.6329 9.00065H81.1717V11.4684H78.9067V11.541ZM81.0986 7.04097H82.4868C82.779 7.04097 82.9982 6.96839 83.1443 6.75065C83.3635 6.60548 83.4366 6.38774 83.4366 6.17C83.4366 5.95226 83.3635 5.73452 83.1443 5.58936C82.9251 5.44419 82.706 5.29903 82.4868 5.29903H81.0986V7.04097Z" fill="white"/>
<path d="M94.3224 8.63788L95.7106 10.1621C95.4183 10.4524 95.1261 10.7427 94.7608 10.9605C93.9571 11.4685 93.0804 11.7589 92.0575 11.7589C90.7424 11.7589 89.6465 11.3234 88.7697 10.525C87.893 9.65401 87.4546 8.63789 87.4546 7.47659C87.4546 6.24272 87.893 5.22659 88.7697 4.42821C89.6465 3.55724 90.7424 3.19434 92.0575 3.19434C93.0804 3.19434 93.9571 3.48466 94.6877 3.99272C95.053 4.21047 95.3453 4.50079 95.5645 4.79111L94.1763 6.3153C94.0302 6.09756 93.811 5.9524 93.5918 5.80724C93.0804 5.44434 92.5689 5.29918 91.9844 5.29918C91.3269 5.29918 90.8154 5.51692 90.3771 5.9524C89.9387 6.38788 89.7195 6.89595 89.7195 7.54917C89.7195 8.2024 89.9387 8.71047 90.3771 9.14595C90.8154 9.58143 91.3269 9.79918 91.9844 9.79918C92.4959 9.79918 93.0804 9.65401 93.5918 9.29111C93.9571 9.00079 94.1763 8.85563 94.3224 8.63788Z" fill="white"/>
<path d="M97.8296 11.541V3.33936H100.095V7.83936L103.601 3.33936H105.574V11.541H103.309V7.04097L99.8023 11.541H97.8296Z" fill="white"/>
<path d="M109.958 11.541V5.29903H107.693V3.33936H114.488V5.29903H112.223V11.4684H109.958V11.541Z" fill="white"/>
<path d="M116.606 11.541V3.33936H122.89V5.29903H118.798V6.46032H121.94V8.34742H118.798V9.50871H122.963V11.4684H116.606V11.541Z" fill="white"/>
<path d="M126.908 11.541V5.29903H124.644V3.33936H131.438V5.29903H129.173V11.4684H126.908V11.541Z" fill="white"/>
<path d="M40.6225 22.1376L42.6682 24.4602C42.2298 24.8956 41.7915 25.3311 41.28 25.694C40.111 26.4924 38.7229 26.8553 37.1886 26.8553C35.1428 26.8553 33.4624 26.2021 32.1473 24.8956C30.8322 23.5892 30.1016 22.065 30.1016 20.1779C30.1016 18.2908 30.7591 16.7666 32.1473 15.4602C33.4624 14.1537 35.1428 13.5005 37.1886 13.5005C38.7229 13.5005 40.038 13.936 41.28 14.7344C41.7915 15.0973 42.2298 15.5327 42.6682 15.9682L40.6225 18.2908C40.3302 18.0005 40.038 17.7102 39.6727 17.4924C38.869 16.9844 37.9922 16.694 37.1886 16.694C36.1657 16.694 35.362 17.0569 34.7045 17.7102C34.0469 18.3634 33.6816 19.2344 33.6816 20.1779C33.6816 21.194 34.0469 21.9924 34.7045 22.6456C35.362 23.2989 36.2388 23.6618 37.1886 23.6618C37.9922 23.6618 38.7959 23.3715 39.6727 22.8634C40.038 22.7182 40.3302 22.4279 40.6225 22.1376Z" fill="white"/>
<path d="M44.2026 26.492V13.9355H47.6365V20.8307L53.0431 13.9355H56.0387V26.492H52.6048V19.5968L47.1982 26.492H44.2026Z" fill="white"/>
<path d="M58.6689 26.492V13.9355H62.1029V18.5081H66.7058V13.9355H70.1397V26.492H66.7058V21.7743H62.1029V26.5646H58.6689V26.492Z" fill="white"/>
<path d="M72.6968 26.492V13.9355H82.3409V16.9839H76.1307V18.7984H80.9528V21.7017H76.1307V23.5162H82.5601V26.5646H72.6968V26.492Z" fill="white"/>
<path d="M84.3867 26.492V13.9355H90.0855C91.4737 13.9355 92.5696 14.371 93.4464 15.1694C94.3231 15.9678 94.7615 17.0565 94.7615 18.2904C94.7615 19.5243 94.3231 20.613 93.4464 21.4114C92.5696 22.2097 91.4737 22.6452 90.0855 22.6452H87.8206V26.4194H84.3867V26.492ZM87.8206 19.6694H89.8664C90.2317 19.6694 90.597 19.5243 90.8892 19.2339C91.1815 18.9436 91.3276 18.6533 91.3276 18.2904C91.3276 17.9275 91.1815 17.6372 90.8892 17.3468C90.597 17.0565 90.2317 16.9114 89.8664 16.9114H87.8206V19.6694Z" fill="white"/>
<path d="M96.6606 26.492V13.9355H105.501V17.2017H100.095V26.5646H96.6606V26.492Z" fill="white"/>
<path d="M107.036 26.492V13.9355H110.47V20.8307L115.876 13.9355H118.872V26.492H115.438V19.5968L110.031 26.492H107.036Z" fill="white"/>
<path d="M120.479 26.492L123.109 21.8468C122.671 21.6291 122.306 21.4114 122.013 21.0484C121.283 20.3226 120.917 19.3791 120.917 18.2178C120.917 16.9839 121.356 15.9678 122.232 15.1694C123.109 14.371 124.205 13.9355 125.52 13.9355H131.511V26.492H128.077V22.5726H126.178L124.132 26.492H120.479ZM125.739 19.5243H128.077V16.9839H125.739C125.374 16.9839 125.009 17.1291 124.79 17.3468C124.57 17.5646 124.424 17.8549 124.424 18.2178C124.424 18.5807 124.57 18.871 124.79 19.0888C125.009 19.3791 125.301 19.5243 125.739 19.5243Z" fill="white"/>
<path d="M146.562 13.2832V3.26709H148.023L151.822 8.12999L155.622 3.26709H157.083V13.2106H155.476V5.87999L151.822 10.5252L148.169 5.87999V13.2106H146.562V13.2832Z" fill="white"/>
<path d="M159.567 13.2832V3.26709H166.654V4.79128H161.101V7.33161H165.485V8.8558H161.101V11.759H166.8V13.2832H159.567Z" fill="white"/>
<path d="M167.239 15.3881V11.759H167.823C168.116 11.4687 168.408 11.0332 168.7 10.5252C169.285 9.43644 169.577 7.98483 169.577 6.2429V3.26709H176.079V11.759H177.321V15.3881H175.714V13.2832H168.773V15.3881H167.239ZM169.504 11.759H174.472V4.79128H171.111V6.31548C171.111 7.98483 170.819 9.36386 170.307 10.5977C170.015 11.0332 169.796 11.4687 169.504 11.759Z" fill="white"/>
<path d="M178.782 13.2832V3.26709H180.39V10.5977L185.942 3.26709H187.404V13.2106H185.796V5.87999L180.243 13.2106H178.782V13.2832Z" fill="white"/>
<path d="M189.888 13.2832V3.26709H191.495V11.759H196.317V3.26709H197.924V11.759H199.167V15.3881H197.559V13.2832H189.888Z" fill="white"/>
<path d="M200.555 13.2832V3.26709H202.162V10.5977L207.715 3.26709H209.176V13.2106H207.496V5.87999L201.943 13.2106H200.555V13.2832Z" fill="white"/>
<path d="M211.66 13.2832V3.26709H213.268V7.47677H218.236V3.26709H219.843V13.2106H218.236V8.8558H213.268V13.2106H211.66V13.2832Z" fill="white"/>
<path d="M230.218 10.3796L231.241 11.3958C230.948 11.7587 230.583 12.1216 230.145 12.4119C229.195 13.0651 228.172 13.428 227.076 13.428C225.542 13.428 224.3 12.92 223.277 11.9038C222.254 10.8877 221.743 9.72642 221.743 8.27481C221.743 6.82319 222.254 5.6619 223.277 4.64578C224.3 3.62965 225.542 3.12158 227.076 3.12158C228.245 3.12158 229.268 3.4119 230.145 4.06513C230.583 4.35545 230.875 4.71836 231.168 5.00868L230.145 6.02481C229.926 5.73449 229.706 5.51674 229.414 5.299C228.757 4.79094 227.953 4.57319 227.076 4.57319C226.053 4.57319 225.177 4.9361 224.446 5.6619C223.715 6.38771 223.35 7.25868 223.35 8.27481C223.35 9.29094 223.715 10.1619 224.446 10.8877C225.177 11.6135 226.053 11.9764 227.076 11.9764C227.953 11.9764 228.757 11.6861 229.414 11.178C229.706 10.9603 229.999 10.67 230.218 10.3796Z" fill="white"/>
<path d="M232.775 13.2832V3.26709H234.382V8.12999L238.912 3.26709H240.958L237.086 7.40419L241.25 13.2832H239.277L235.99 8.56548L234.382 10.3074V13.2832H232.775Z" fill="white"/>
<path d="M242.346 13.2832V3.26709H243.954V10.5977L249.506 3.26709H250.967V13.2106H249.36V5.87999L243.807 13.2106H242.346V13.2832Z" fill="white"/>
<path d="M253.452 13.2832V3.26711H255.059V10.5978L260.612 3.26711H262.073V13.2107H260.466V5.88001L254.913 13.2107H253.452V13.2832ZM255.57 0.000976563H256.666C256.666 0.291299 256.739 0.509041 256.959 0.726783C257.178 0.944525 257.397 1.01711 257.689 1.01711C257.982 1.01711 258.201 0.944525 258.42 0.726783C258.639 0.509041 258.712 0.291299 258.712 0.000976562H259.808C259.808 0.581622 259.589 1.01711 259.224 1.45259C258.858 1.81549 258.347 2.03323 257.762 2.03323C257.178 2.03323 256.666 1.81549 256.301 1.45259C255.79 1.01711 255.57 0.581622 255.57 0.000976563Z" fill="white"/>
<path d="M150.507 26.7828V25.4764C149.046 25.3312 147.877 24.8957 147 24.1699C146.197 23.4441 145.758 22.5006 145.758 21.3393C145.758 20.178 146.197 19.2344 147 18.5086C147.804 17.7828 148.973 17.3473 150.507 17.2022V16.186H152.115V17.2022C153.576 17.3473 154.745 17.7828 155.622 18.5086C156.425 19.2344 156.864 20.178 156.864 21.3393C156.864 22.5006 156.425 23.4441 155.622 24.1699C154.818 24.8957 153.649 25.3312 152.115 25.4764V26.7828H150.507ZM150.507 24.0973V18.6538C149.558 18.7264 148.754 19.0167 148.169 19.5247C147.585 20.0328 147.366 20.6135 147.366 21.3393C147.366 22.0651 147.658 22.7183 148.169 23.1538C148.754 23.7344 149.484 24.0247 150.507 24.0973ZM152.042 18.6538V24.0973C152.991 24.0247 153.795 23.7344 154.38 23.2264C154.964 22.7183 155.183 22.1376 155.183 21.4118C155.183 20.686 154.891 20.0328 154.38 19.5973C153.795 19.0167 153.064 18.7264 152.042 18.6538Z" fill="white"/>
<path d="M157.302 26.4929L161.321 16.5493H163.074L167.093 26.4929H165.412L164.389 23.9525H159.932L158.91 26.4929H157.302ZM160.517 22.5009H163.805L162.124 18.3638L160.517 22.5009Z" fill="white"/>
<path d="M168.334 26.4929V16.5493H169.942V21.4122L174.472 16.5493H176.517L172.645 20.6864L176.81 26.5654H174.837L171.549 21.8477L169.942 23.5896V26.5654H168.334V26.4929Z" fill="white"/>
<path d="M177.467 26.4203V24.9687C177.54 25.0413 177.613 25.0413 177.687 25.0413C177.906 25.1138 178.052 25.1138 178.271 25.1138C178.709 25.1138 179.148 25.0413 179.367 24.8235C179.659 24.6058 179.878 24.3154 180.098 23.88L180.317 23.4445L176.518 16.5493H178.198L181.12 21.9203L183.605 16.5493H185.285L181.559 24.3154C181.194 25.1138 180.755 25.6945 180.244 26.0574C179.805 26.4203 179.148 26.638 178.49 26.638C178.198 26.638 177.906 26.638 177.687 26.5654L177.467 26.4203Z" fill="white"/>
<path d="M185.065 26.4201V24.9685C185.138 25.0411 185.212 25.0411 185.285 25.0411C185.431 25.1137 185.65 25.1137 185.869 25.1137C186.161 25.1137 186.381 25.0411 186.527 24.8959C186.746 24.7508 186.892 24.4604 187.111 24.0975C187.257 23.7346 187.403 23.154 187.55 22.3556C187.623 21.5572 187.696 20.6137 187.696 19.4524V16.4766H194.49V26.4201H192.883V18.0008H189.23V19.5249C189.23 20.6862 189.157 21.6298 189.084 22.5008C189.011 23.3717 188.865 24.0249 188.645 24.533C188.499 25.0411 188.28 25.4766 187.988 25.7669C187.696 26.0572 187.403 26.275 187.184 26.4201C186.892 26.5653 186.527 26.5653 186.161 26.5653C185.869 26.5653 185.577 26.5653 185.358 26.4927L185.065 26.4201Z" fill="white"/>
<path d="M197.048 26.4929V16.5493H198.655V20.1058H201.066C202.016 20.1058 202.82 20.3961 203.477 21.0493C204.135 21.7025 204.427 22.4283 204.427 23.2993C204.427 24.1703 204.135 24.9687 203.477 25.5493C202.82 26.2025 202.016 26.4929 201.066 26.4929H197.048ZM198.655 25.1138H201.066C201.578 25.1138 202.016 24.9687 202.308 24.6058C202.674 24.2429 202.82 23.8074 202.82 23.3719C202.82 22.8638 202.674 22.4284 202.308 22.138C201.943 21.7751 201.505 21.63 201.066 21.63H198.655V25.1138Z" fill="white"/>
<path d="M208.08 26.4927V18.0008H205.084V16.4766H212.683V18.0008H209.687V26.4927H208.08Z" fill="white"/>
<path d="M214.145 26.4929V16.5493H221.232V18.0735H215.679V20.6138H220.063V22.138H215.679V25.0413H221.378V26.5654H214.145V26.4929Z" fill="white"/>
<path d="M225.03 26.4927V18.0008H222.035V16.4766H229.633V18.0008H226.638V26.4927H225.03Z" fill="white"/>
</g>
<defs>
<clipPath id="clip0">
<rect width="262" height="27" fill="white"/>
</clipPath>
</defs>
</svg>
