<svg width="119" height="22" viewBox="0 0 119 22" fill="none" xmlns="http://www.w3.org/2000/svg">
<g clip-path="url(#clip0)">
<path d="M13.6593 13.1073L11.4605 10.9341L13.6593 8.82681V4.48047L7.12964 10.9341L13.6593 17.3878V13.1073Z" fill="#0A0521"/>
<path d="M0.600098 0.200195V21.6685H22.3212V0.200195H0.600098ZM19.2563 18.6392H3.73167V3.29532H19.2563V18.6392Z" fill="#0A0521"/>
<path d="M27.718 7.77356V5.99551C27.7847 5.99551 27.8513 6.06136 27.9179 6.06136C28.0512 6.06136 28.1844 6.12722 28.3843 6.12722C28.9174 6.12722 29.3171 5.92966 29.517 5.46868L29.5836 5.33697L26.9851 0.397949H29.2505L30.5831 3.49307H30.6497L31.7824 0.397949H34.0478L31.4493 5.92966C31.1161 6.58819 30.783 7.11502 30.3166 7.44429C29.9168 7.77356 29.3838 7.97112 28.7175 7.97112C28.451 7.97112 28.1844 7.97112 27.9845 7.90527L27.718 7.77356Z" fill="#0A0521"/>
<path d="M35.647 7.83948V0.463867H37.7125V3.16387H40.4443V0.463867H42.5098V7.90533H40.4443V5.07362H37.7125V7.90533H35.647V7.83948Z" fill="#0A0521"/>
<path d="M45.0415 7.83948V0.463867H47.107V4.54679L50.3052 0.463867H52.1042V7.90533H50.0387V3.75655L46.8405 7.83948H45.0415Z" fill="#0A0521"/>
<path d="M54.6362 7.83948V0.463867H57.9677C58.7672 0.463867 59.4335 0.661428 59.8999 1.05655C60.3663 1.45167 60.5662 1.91265 60.5662 2.43948C60.5662 2.96631 60.3663 3.36143 59.9666 3.6907C59.8333 3.8224 59.6334 3.88826 59.4335 4.01996C59.7 4.15167 59.9666 4.21753 60.1665 4.41509C60.6995 4.81021 60.8994 5.27118 60.8994 5.86387C60.8994 6.45655 60.6329 6.91753 60.1665 7.31265C59.7 7.70777 59.0338 7.90533 58.1676 7.90533H54.6362V7.83948ZM56.7017 3.29557H57.8344C58.0343 3.29557 58.2342 3.22972 58.3675 3.09801C58.5007 2.96631 58.5674 2.8346 58.5674 2.63704C58.5674 2.43948 58.4341 2.30777 58.3008 2.17606C58.1676 2.04435 58.0343 1.9785 57.7678 1.9785H56.6351V3.29557H56.7017ZM56.7017 6.25899H58.1009C58.3675 6.25899 58.5007 6.19314 58.7006 6.06143C58.8339 5.92972 58.9005 5.73216 58.9005 5.5346C58.9005 5.33704 58.8339 5.13948 58.7006 5.00777C58.5007 4.87606 58.3008 4.81021 58.1009 4.81021H56.7017V6.25899Z" fill="#0A0521"/>
<path d="M63.0315 7.83948V0.463867H68.7616V2.24192H65.0304V3.29557H67.8954V5.00777H65.0304V6.06143H68.8282V7.83948H63.0315Z" fill="#0A0521"/>
<path d="M71.0269 7.83948V0.463867H74.4249C75.2245 0.463867 75.8908 0.727282 76.4238 1.18826C76.9569 1.64923 77.2234 2.30777 77.2234 3.03216C77.2234 3.75655 76.9569 4.41509 76.4238 4.87606C75.8908 5.33704 75.2245 5.60045 74.4249 5.60045H73.0924V7.83948H71.0269ZM73.0924 3.8224H74.3583C74.6248 3.8224 74.8247 3.75655 74.958 3.55899C75.1579 3.42728 75.2245 3.22972 75.2245 3.03216C75.2245 2.8346 75.1579 2.63704 74.958 2.50533C74.7581 2.37362 74.5582 2.24192 74.3583 2.24192H73.0924V3.8224Z" fill="#0A0521"/>
<path d="M85.1523 5.27106L86.4183 6.65398C86.1517 6.9174 85.8852 7.18081 85.5521 7.37837C84.8192 7.83935 84.0196 8.10276 83.0868 8.10276C81.8875 8.10276 80.888 7.70764 80.0885 6.98325C79.2889 6.19301 78.8892 5.27106 78.8892 4.2174C78.8892 3.16374 79.2889 2.17593 80.0885 1.45154C80.888 0.661299 81.8875 0.332031 83.0868 0.332031C84.0196 0.332031 84.8192 0.595446 85.4854 1.05642C85.8186 1.25398 86.0851 1.5174 86.285 1.78081L85.019 3.16374C84.8858 2.96618 84.6859 2.83447 84.486 2.70276C84.0196 2.37349 83.5532 2.24179 83.0202 2.24179C82.4205 2.24179 81.9541 2.43935 81.5543 2.83447C81.1546 3.22959 80.9547 3.69057 80.9547 4.28325C80.9547 4.87593 81.1546 5.33691 81.5543 5.73203C81.9541 6.12715 82.4205 6.32471 83.0202 6.32471C83.4866 6.32471 84.0196 6.19301 84.486 5.86374C84.7525 5.60032 84.9524 5.40276 85.1523 5.27106Z" fill="#0A0521"/>
<path d="M88.2839 7.83948V0.463867H90.3494V4.54679L93.5476 0.463867H95.3466V7.90533H93.2811V3.75655L90.0829 7.83948H88.2839Z" fill="#0A0521"/>
<path d="M99.3443 7.83948V2.24192H97.2788V0.463867H103.475V2.24192H101.41V7.83948H99.3443Z" fill="#0A0521"/>
<path d="M105.408 7.83948V0.463867H111.138V2.24192H107.407V3.29557H110.272V5.00777H107.407V6.06143H111.204V7.83948H105.408Z" fill="#0A0521"/>
<path d="M114.802 7.83948V2.24192H112.737V0.463867H118.933V2.24192H116.868V7.83948H114.802Z" fill="#0A0521"/>
<path d="M36.1134 17.4538L37.979 19.5612C37.5792 19.9563 37.1795 20.3514 36.7131 20.6807C35.647 21.4051 34.381 21.8002 32.9818 21.8002C31.1162 21.8002 29.5837 21.2075 28.3844 20.0221C27.1851 18.8368 26.5188 17.4538 26.5188 15.7416C26.5188 14.0294 27.1185 12.6465 28.3844 11.4612C29.5837 10.2758 31.1162 9.68311 32.9818 9.68311C34.381 9.68311 35.5804 10.0782 36.7131 10.8026C37.1795 11.1319 37.5792 11.527 37.979 11.9221L36.0468 14.0294C35.7803 13.766 35.5137 13.5026 35.1806 13.3051C34.4477 12.8441 33.7147 12.5807 32.9818 12.5807C32.049 12.5807 31.3161 12.9099 30.7164 13.5026C30.1168 14.0953 29.7836 14.8855 29.7836 15.7416C29.7836 16.6636 30.1168 17.388 30.7164 17.9807C31.3161 18.5734 32.1156 18.9026 32.9818 18.9026C33.7147 18.9026 34.4477 18.6392 35.2472 18.1782C35.5804 17.9807 35.9135 17.7173 36.1134 17.4538Z" fill="#0A0521"/>
<path d="M39.3782 21.4708V10.0781H42.5097V16.3342L47.4403 10.0781H50.1721V21.4708H47.0405V15.2147L42.11 21.4708H39.3782Z" fill="#0A0521"/>
<path d="M52.5708 21.4708V10.0781H55.7024V14.2269H59.9V10.0781H63.0316V21.4708H59.9V17.1245H55.7024V21.4708H52.5708Z" fill="#0A0521"/>
<path d="M65.3635 21.4708V10.0781H74.1586V12.844H68.4951V14.4903H72.8926V17.1245H68.4951V18.7708H74.3585V21.5367H65.3635V21.4708Z" fill="#0A0521"/>
<path d="M76.0908 21.4708V10.0781H81.2879C82.5538 10.0781 83.5533 10.4732 84.3528 11.1976C85.1524 11.922 85.5522 12.9098 85.5522 14.0293C85.5522 15.1489 85.1524 16.1367 84.3528 16.8611C83.5533 17.5854 82.5538 17.9806 81.2879 17.9806H79.2224V21.405H76.0908V21.4708ZM79.2224 15.2806H81.088C81.4212 15.2806 81.7543 15.1489 82.0208 14.8854C82.2873 14.622 82.4206 14.3586 82.4206 14.0293C82.4206 13.7001 82.2873 13.4367 82.0208 13.1732C81.7543 12.9098 81.4212 12.7781 81.088 12.7781H79.2224V15.2806Z" fill="#0A0521"/>
<path d="M87.2847 21.4708V10.0781H95.3468V13.0415H90.4162V21.5367H87.2847V21.4708Z" fill="#0A0521"/>
<path d="M96.6792 21.4708V10.0781H99.8108V16.3342L104.741 10.0781H107.473V21.4708H104.342V15.2147L99.411 21.4708H96.6792Z" fill="#0A0521"/>
<path d="M108.939 21.4708L111.338 17.2562C110.938 17.0586 110.605 16.8611 110.338 16.5318C109.672 15.8732 109.339 15.0171 109.339 13.9635C109.339 12.844 109.739 11.922 110.538 11.1976C111.338 10.4732 112.337 10.0781 113.536 10.0781H119V21.4708H115.868V17.9147H114.136L112.27 21.4708H108.939ZM113.736 15.083H115.868V12.7781H113.736C113.403 12.7781 113.07 12.9098 112.87 13.1074C112.67 13.305 112.537 13.5684 112.537 13.8976C112.537 14.2269 112.67 14.4903 112.87 14.6879C113.07 15.0171 113.336 15.083 113.736 15.083Z" fill="#0A0521"/>
</g>
<defs>
<clipPath id="clip0">
<rect width="118.4" height="21.6" fill="white" transform="translate(0.600098 0.200195)"/>
</clipPath>
</defs>
</svg>
