<svg width="262" height="28" viewBox="0 0 262 28" fill="none" xmlns="http://www.w3.org/2000/svg">
<g clip-path="url(#clip0)">
<path d="M16.6581 6.4711V8.64852V11.1888H19.2153H21.4071V20.1888H19.2153H16.6581V22.7292V24.9066H7.59844V22.7292V20.1888H5.11433H2.92248V11.1888H5.11433H7.6715V8.64852V6.4711H16.6581ZM19.4345 3.56787H4.89515V8.43077H0V22.8743H4.89515V27.7372H19.4345V22.8743H24.3296V8.43077H19.4345V3.56787Z" fill="#FF0044"/>
<path d="M11.9821 15.689L14.1739 13.439V9.37451L7.89062 15.689L14.1739 21.931V17.8664L11.9821 15.689Z" fill="#FF0044"/>
<path d="M138.379 4.07568V27.3015H139.767V4.07568H138.379Z" fill="#FF0044"/>
<path d="M31.4165 12.2045V10.1723C31.4895 10.1723 31.5626 10.2449 31.6357 10.2449C31.7818 10.3174 31.9279 10.3174 32.1471 10.3174C32.7316 10.3174 33.17 10.0997 33.3891 9.59164L33.4622 9.44648L30.6128 4.00293H33.0969L34.6312 7.41422H34.7043L35.9463 4.00293H38.4304L35.4349 10.1723C35.0696 10.8981 34.7043 11.4787 34.1928 11.8416C33.7545 12.2045 33.17 12.4223 32.4393 12.4223C32.1471 12.4223 31.8548 12.4223 31.6357 12.3497L31.4165 12.2045Z" fill="#008694"/>
<path d="M40.1108 12.2778V4.07617H42.3758V7.05198H45.3713V4.07617H47.6362V12.2778H45.3713V9.15682H42.3758V12.2778H40.1108Z" fill="#008694"/>
<path d="M50.4126 12.2778V4.07617H52.6045V8.57617L56.1114 4.07617H58.0841V12.2778H55.8192V7.77778L52.3122 12.2778H50.4126Z" fill="#008694"/>
<path d="M60.9336 12.2778V4.07617H64.5867C65.4634 4.07617 66.194 4.29391 66.7055 4.7294C67.2169 5.16488 67.4361 5.67295 67.4361 6.25359C67.4361 6.83424 67.2169 7.26972 66.7785 7.63262C66.6324 7.77779 66.4132 7.85037 66.194 7.99553C66.4863 8.14069 66.7785 8.21327 66.9977 8.43101C67.5822 8.8665 67.8014 9.37456 67.8014 10.0278C67.8014 10.681 67.5092 11.1891 66.9977 11.6246C66.4863 12.06 65.7557 12.2778 64.8059 12.2778H60.9336ZM63.1254 7.19714H64.3675C64.5867 7.19714 64.8059 7.12456 64.952 6.9794C65.0981 6.83424 65.1712 6.68908 65.1712 6.47133C65.1712 6.25359 65.0981 6.10843 64.952 5.96327C64.8059 5.89069 64.5867 5.81811 64.3675 5.81811H63.1254V7.19714ZM63.1254 10.4633H64.6597C64.952 10.4633 65.0981 10.3907 65.3173 10.2455C65.4634 10.1004 65.5365 9.88262 65.5365 9.66488C65.5365 9.44714 65.4634 9.2294 65.3173 9.08424C65.1712 8.93908 64.952 8.86649 64.6597 8.86649H63.1254V10.4633Z" fill="#008694"/>
<path d="M70.1392 12.2778V4.07617H76.4225V6.03585H72.331V7.19714H75.4727V9.08424H72.331V10.2455H76.4955V12.2052H70.1392V12.2778Z" fill="#008694"/>
<path d="M78.9067 12.2778V4.07617H82.6329C83.5096 4.07617 84.2402 4.36649 84.8247 4.87456C85.4092 5.38262 85.7015 6.10843 85.7015 6.90682C85.7015 7.7052 85.4092 8.43101 84.8247 8.93908C84.2402 9.44714 83.5096 9.73746 82.6329 9.73746H81.1717V12.2052H78.9067V12.2778ZM81.0986 7.77778H82.4868C82.779 7.77778 82.9982 7.7052 83.1443 7.48746C83.3635 7.3423 83.4366 7.12456 83.4366 6.90682C83.4366 6.68908 83.3635 6.47133 83.1443 6.32617C82.9251 6.18101 82.706 6.03585 82.4868 6.03585H81.0986V7.77778Z" fill="#008694"/>
<path d="M94.3224 9.3747L95.7106 10.8989C95.4183 11.1892 95.1261 11.4795 94.7608 11.6973C93.9571 12.2053 93.0804 12.4957 92.0575 12.4957C90.7424 12.4957 89.6465 12.0602 88.7697 11.2618C87.893 10.3908 87.4546 9.3747 87.4546 8.21341C87.4546 6.97954 87.893 5.96341 88.7697 5.16502C89.6465 4.29406 90.7424 3.93115 92.0575 3.93115C93.0804 3.93115 93.9571 4.22147 94.6877 4.72954C95.053 4.94728 95.3453 5.2376 95.5645 5.52793L94.1763 7.05212C94.0302 6.83438 93.811 6.68922 93.5918 6.54406C93.0804 6.18115 92.5689 6.03599 91.9844 6.03599C91.3269 6.03599 90.8154 6.25373 90.3771 6.68922C89.9387 7.1247 89.7195 7.63277 89.7195 8.28599C89.7195 8.93922 89.9387 9.44728 90.3771 9.88277C90.8154 10.3183 91.3269 10.536 91.9844 10.536C92.4959 10.536 93.0804 10.3908 93.5918 10.0279C93.9571 9.7376 94.1763 9.59244 94.3224 9.3747Z" fill="#008694"/>
<path d="M97.8296 12.2778V4.07617H100.095V8.57617L103.601 4.07617H105.574V12.2778H103.309V7.77778L99.8023 12.2778H97.8296Z" fill="#008694"/>
<path d="M109.958 12.2778V6.03585H107.693V4.07617H114.488V6.03585H112.223V12.2052H109.958V12.2778Z" fill="#008694"/>
<path d="M116.606 12.2778V4.07617H122.89V6.03585H118.798V7.19714H121.94V9.08424H118.798V10.2455H122.963V12.2052H116.606V12.2778Z" fill="#008694"/>
<path d="M126.908 12.2778V6.03585H124.644V4.07617H131.438V6.03585H129.173V12.2052H126.908V12.2778Z" fill="#008694"/>
<path d="M40.6225 22.8744L42.6682 25.197C42.2298 25.6325 41.7915 26.0679 41.28 26.4309C40.111 27.2292 38.7229 27.5921 37.1886 27.5921C35.1428 27.5921 33.4624 26.9389 32.1473 25.6325C30.8322 24.326 30.1016 22.8018 30.1016 20.9147C30.1016 19.0276 30.7591 17.5034 32.1473 16.197C33.4624 14.8905 35.1428 14.2373 37.1886 14.2373C38.7229 14.2373 40.038 14.6728 41.28 15.4712C41.7915 15.8341 42.2298 16.2696 42.6682 16.705L40.6225 19.0276C40.3302 18.7373 40.038 18.447 39.6727 18.2292C38.869 17.7212 37.9922 17.4309 37.1886 17.4309C36.1657 17.4309 35.362 17.7938 34.7045 18.447C34.0469 19.1002 33.6816 19.9712 33.6816 20.9147C33.6816 21.9309 34.0469 22.7292 34.7045 23.3825C35.362 24.0357 36.2388 24.3986 37.1886 24.3986C37.9922 24.3986 38.7959 24.1083 39.6727 23.6002C40.038 23.455 40.3302 23.1647 40.6225 22.8744Z" fill="#008694"/>
<path d="M44.2026 27.2288V14.6724H47.6365V21.5675L53.0431 14.6724H56.0387V27.2288H52.6048V20.3337L47.1982 27.2288H44.2026Z" fill="#008694"/>
<path d="M58.6689 27.2288V14.6724H62.1029V19.2449H66.7058V14.6724H70.1397V27.2288H66.7058V22.5111H62.1029V27.3014H58.6689V27.2288Z" fill="#008694"/>
<path d="M72.6968 27.2288V14.6724H82.3409V17.7207H76.1307V19.5353H80.9528V22.4385H76.1307V24.253H82.5601V27.3014H72.6968V27.2288Z" fill="#008694"/>
<path d="M84.3867 27.2288V14.6724H90.0855C91.4737 14.6724 92.5696 15.1078 93.4464 15.9062C94.3231 16.7046 94.7615 17.7933 94.7615 19.0272C94.7615 20.2611 94.3231 21.3498 93.4464 22.1482C92.5696 22.9466 91.4737 23.382 90.0855 23.382H87.8206V27.1562H84.3867V27.2288ZM87.8206 20.4062H89.8664C90.2317 20.4062 90.597 20.2611 90.8892 19.9707C91.1815 19.6804 91.3276 19.3901 91.3276 19.0272C91.3276 18.6643 91.1815 18.374 90.8892 18.0837C90.597 17.7933 90.2317 17.6482 89.8664 17.6482H87.8206V20.4062Z" fill="#008694"/>
<path d="M96.6606 27.2288V14.6724H105.501V17.9385H100.095V27.3014H96.6606V27.2288Z" fill="#008694"/>
<path d="M107.036 27.2288V14.6724H110.47V21.5675L115.876 14.6724H118.872V27.2288H115.438V20.3337L110.031 27.2288H107.036Z" fill="#008694"/>
<path d="M120.479 27.2288L123.109 22.5837C122.671 22.3659 122.306 22.1482 122.013 21.7853C121.283 21.0595 120.917 20.1159 120.917 18.9546C120.917 17.7207 121.356 16.7046 122.232 15.9062C123.109 15.1078 124.205 14.6724 125.52 14.6724H131.511V27.2288H128.077V23.3095H126.178L124.132 27.2288H120.479ZM125.739 20.2611H128.077V17.7207H125.739C125.374 17.7207 125.009 17.8659 124.79 18.0837C124.57 18.3014 124.424 18.5917 124.424 18.9546C124.424 19.3175 124.57 19.6078 124.79 19.8256C125.009 20.1159 125.301 20.2611 125.739 20.2611Z" fill="#008694"/>
<path d="M146.562 14.02V4.00391H148.023L151.822 8.86681L155.622 4.00391H157.083V13.9475H155.476V6.61681L151.822 11.262L148.169 6.61681V13.9475H146.562V14.02Z" fill="#008694"/>
<path d="M159.567 14.02V4.00391H166.654V5.5281H161.101V8.06842H165.485V9.59262H161.101V12.4958H166.8V14.02H159.567Z" fill="#008694"/>
<path d="M167.239 16.1249V12.4958H167.823C168.116 12.2055 168.408 11.77 168.7 11.262C169.285 10.1733 169.577 8.72165 169.577 6.97971V4.00391H176.079V12.4958H177.321V16.1249H175.714V14.02H168.773V16.1249H167.239ZM169.504 12.4958H174.472V5.5281H171.111V7.05229C171.111 8.72165 170.819 10.1007 170.307 11.3346C170.015 11.77 169.796 12.2055 169.504 12.4958Z" fill="#008694"/>
<path d="M178.782 14.02V4.00391H180.39V11.3346L185.942 4.00391H187.404V13.9475H185.796V6.61681L180.243 13.9475H178.782V14.02Z" fill="#008694"/>
<path d="M189.888 14.02V4.00391H191.495V12.4958H196.317V4.00391H197.924V12.4958H199.167V16.1249H197.559V14.02H189.888Z" fill="#008694"/>
<path d="M200.555 14.02V4.00391H202.162V11.3346L207.715 4.00391H209.176V13.9475H207.496V6.61681L201.943 13.9475H200.555V14.02Z" fill="#008694"/>
<path d="M211.66 14.02V4.00391H213.268V8.21358H218.236V4.00391H219.843V13.9475H218.236V9.59262H213.268V13.9475H211.66V14.02Z" fill="#008694"/>
<path d="M230.218 11.1165L231.241 12.1326C230.948 12.4955 230.583 12.8584 230.145 13.1487C229.195 13.8019 228.172 14.1648 227.076 14.1648C225.542 14.1648 224.3 13.6568 223.277 12.6407C222.254 11.6245 221.743 10.4632 221.743 9.01162C221.743 7.56001 222.254 6.39872 223.277 5.38259C224.3 4.36646 225.542 3.8584 227.076 3.8584C228.245 3.8584 229.268 4.14872 230.145 4.80195C230.583 5.09227 230.875 5.45517 231.168 5.7455L230.145 6.76162C229.926 6.4713 229.706 6.25356 229.414 6.03582C228.757 5.52775 227.953 5.31001 227.076 5.31001C226.053 5.31001 225.177 5.67291 224.446 6.39872C223.715 7.12453 223.35 7.99549 223.35 9.01162C223.35 10.0278 223.715 10.8987 224.446 11.6245C225.177 12.3503 226.053 12.7132 227.076 12.7132C227.953 12.7132 228.757 12.4229 229.414 11.9148C229.706 11.6971 229.999 11.4068 230.218 11.1165Z" fill="#008694"/>
<path d="M232.775 14.02V4.00391H234.382V8.86681L238.912 4.00391H240.958L237.086 8.141L241.25 14.02H239.277L235.99 9.30229L234.382 11.0442V14.02H232.775Z" fill="#008694"/>
<path d="M242.346 14.02V4.00391H243.954V11.3346L249.506 4.00391H250.967V13.9475H249.36V6.61681L243.807 13.9475H242.346V14.02Z" fill="#008694"/>
<path d="M253.452 14.0201V4.00392H255.059V11.3346L260.612 4.00392H262.073V13.9475H260.466V6.61683L254.913 13.9475H253.452V14.0201ZM255.57 0.737793H256.666C256.666 1.02812 256.739 1.24586 256.959 1.4636C257.178 1.68134 257.397 1.75392 257.689 1.75392C257.982 1.75392 258.201 1.68134 258.42 1.4636C258.639 1.24586 258.712 1.02812 258.712 0.737793H259.808C259.808 1.31844 259.589 1.75392 259.224 2.18941C258.858 2.55231 258.347 2.77005 257.762 2.77005C257.178 2.77005 256.666 2.55231 256.301 2.18941C255.79 1.75392 255.57 1.31844 255.57 0.737793Z" fill="#008694"/>
<path d="M150.507 27.5196V26.2132C149.046 26.068 147.877 25.6325 147 24.9067C146.197 24.1809 145.758 23.2374 145.758 22.0761C145.758 20.9148 146.197 19.9712 147 19.2454C147.804 18.5196 148.973 18.0841 150.507 17.939V16.9229H152.115V17.939C153.576 18.0841 154.745 18.5196 155.622 19.2454C156.425 19.9712 156.864 20.9148 156.864 22.0761C156.864 23.2374 156.425 24.1809 155.622 24.9067C154.818 25.6325 153.649 26.068 152.115 26.2132V27.5196H150.507ZM150.507 24.8341V19.3906C149.558 19.4632 148.754 19.7535 148.169 20.2616C147.585 20.7696 147.366 21.3503 147.366 22.0761C147.366 22.8019 147.658 23.4551 148.169 23.8906C148.754 24.4712 149.484 24.7616 150.507 24.8341ZM152.042 19.3906V24.8341C152.991 24.7616 153.795 24.4712 154.38 23.9632C154.964 23.4551 155.183 22.8745 155.183 22.1487C155.183 21.4229 154.891 20.7696 154.38 20.3341C153.795 19.7535 153.064 19.4632 152.042 19.3906Z" fill="#008694"/>
<path d="M157.302 27.2297L161.321 17.2861H163.074L167.093 27.2297H165.412L164.389 24.6894H159.932L158.91 27.2297H157.302ZM160.517 23.2377H163.805L162.124 19.1006L160.517 23.2377Z" fill="#008694"/>
<path d="M168.334 27.2297V17.2861H169.942V22.149L174.472 17.2861H176.517L172.645 21.4232L176.81 27.3023H174.837L171.549 22.5845L169.942 24.3265V27.3023H168.334V27.2297Z" fill="#008694"/>
<path d="M177.467 27.1571V25.7055C177.54 25.7781 177.613 25.7781 177.687 25.7781C177.906 25.8506 178.052 25.8506 178.271 25.8506C178.709 25.8506 179.148 25.7781 179.367 25.5603C179.659 25.3426 179.878 25.0523 180.098 24.6168L180.317 24.1813L176.518 17.2861H178.198L181.12 22.6571L183.605 17.2861H185.285L181.559 25.0523C181.194 25.8506 180.755 26.4313 180.244 26.7942C179.805 27.1571 179.148 27.3748 178.49 27.3748C178.198 27.3748 177.906 27.3748 177.687 27.3023L177.467 27.1571Z" fill="#008694"/>
<path d="M185.065 27.1569V25.7053C185.138 25.7779 185.212 25.7779 185.285 25.7779C185.431 25.8505 185.65 25.8505 185.869 25.8505C186.161 25.8505 186.381 25.7779 186.527 25.6327C186.746 25.4876 186.892 25.1973 187.111 24.8343C187.257 24.4714 187.403 23.8908 187.55 23.0924C187.623 22.294 187.696 21.3505 187.696 20.1892V17.2134H194.49V27.1569H192.883V18.7376H189.23V20.2618C189.23 21.4231 189.157 22.3666 189.084 23.2376C189.011 24.1085 188.865 24.7618 188.645 25.2698C188.499 25.7779 188.28 26.2134 187.988 26.5037C187.696 26.794 187.403 27.0118 187.184 27.1569C186.892 27.3021 186.527 27.3021 186.161 27.3021C185.869 27.3021 185.577 27.3021 185.358 27.2295L185.065 27.1569Z" fill="#008694"/>
<path d="M197.048 27.2297V17.2861H198.655V20.8426H201.066C202.016 20.8426 202.82 21.1329 203.477 21.7861C204.135 22.4394 204.427 23.1652 204.427 24.0361C204.427 24.9071 204.135 25.7055 203.477 26.2861C202.82 26.9394 202.016 27.2297 201.066 27.2297H197.048ZM198.655 25.8507H201.066C201.578 25.8507 202.016 25.7055 202.308 25.3426C202.674 24.9797 202.82 24.5442 202.82 24.1087C202.82 23.6007 202.674 23.1652 202.308 22.8748C201.943 22.5119 201.505 22.3668 201.066 22.3668H198.655V25.8507Z" fill="#008694"/>
<path d="M208.08 27.2295V18.7376H205.084V17.2134H212.683V18.7376H209.687V27.2295H208.08Z" fill="#008694"/>
<path d="M214.145 27.2297V17.2861H221.232V18.8103H215.679V21.3506H220.063V22.8748H215.679V25.7781H221.378V27.3023H214.145V27.2297Z" fill="#008694"/>
<path d="M225.03 27.2295V18.7376H222.035V17.2134H229.633V18.7376H226.638V27.2295H225.03Z" fill="#008694"/>
</g>
<defs>
<clipPath id="clip0">
<rect width="262" height="27" fill="white" transform="translate(0 0.736816)"/>
</clipPath>
</defs>
</svg>
