<svg width="620" height="547" viewBox="0 0 620 547" fill="none" xmlns="http://www.w3.org/2000/svg">
<path opacity="0.34" d="M567.739 206.354C565.918 202.322 564.096 198.421 562.275 194.649C493.451 57.4457 311.047 -58.4298 167.153 32.0857C133.847 53.0239 111.079 86.7071 104.704 127.023C93.9051 195.43 81.4153 270.079 45.8973 329.902C26.6421 362.545 5.43532 401.821 12.3308 441.746C23.3895 505.081 90.3924 534.213 144.255 543.706C201.63 553.72 258.095 540.065 310.006 514.055C364.389 486.744 410.835 448.899 468.861 429.131C495.922 419.898 526.497 415.346 549.265 396.098C605.469 348.5 595.321 267.998 567.739 206.354Z" fill="#C2EEDB"/>
<path opacity="0.4" d="M209.716 398.141L17.7299 297.783C10.8371 294.199 11.4805 287.214 19.1084 282.159L270.923 118.296C278.643 113.333 290.407 112.138 297.299 115.723L489.193 215.989C496.086 219.573 495.443 226.558 487.815 231.612L236 395.476C228.464 400.622 216.608 401.725 209.716 398.141Z" fill="#ACD8DC"/>
<path d="M480.095 213.232C479.359 212.589 478.532 211.945 477.521 211.394L285.628 111.035C278.735 107.451 266.879 108.554 259.251 113.609L7.43664 277.472C6.60951 278.024 5.78238 278.667 5.13906 279.218L1.00342 281.332L1.37105 287.49C1.83057 289.603 3.301 291.533 6.05809 293.004L197.952 393.27C204.845 396.854 216.7 395.752 224.328 390.697L476.143 226.834C480.095 224.26 482.208 221.136 482.3 218.195L482.117 213.232H480.095Z" fill="#024246"/>
<path d="M197.676 388.4L5.78236 288.133C-1.11038 284.549 -0.467057 277.564 7.16091 272.51L258.976 108.646C266.696 103.683 278.459 102.489 285.352 106.073L477.246 206.339C484.138 209.923 483.495 216.908 475.867 221.963L224.052 385.826C216.424 390.881 204.569 391.984 197.676 388.4Z" fill="white" stroke="#024246" stroke-width="0.834338" stroke-miterlimit="10" stroke-linecap="round" stroke-linejoin="round"/>
<path d="M208.613 371.397L24.0713 274.991L276.621 114.62L461.163 211.026L208.613 371.397Z" fill="white" stroke="#024246" stroke-width="0.834338" stroke-miterlimit="10" stroke-linecap="round" stroke-linejoin="round"/>
<path d="M415.027 173.99L408.686 170.681C415.762 166.178 415.487 159.377 408.042 155.517L373.855 137.688C366.41 133.828 354.647 134.288 347.57 138.791L343.343 136.585C335.623 132.541 323.308 133.093 315.956 137.78C308.603 142.467 308.879 149.543 316.599 153.587L388.283 190.992C396.003 195.036 408.318 194.484 415.67 189.797C423.023 185.11 422.747 178.033 415.027 173.99Z" fill="#024246"/>
<path d="M414.752 168.016L408.41 164.707C415.487 160.204 415.211 153.403 407.767 149.543L373.579 131.714C366.135 127.854 354.371 128.314 347.295 132.817L343.067 130.611C335.347 126.567 323.032 127.119 315.68 131.806C308.328 136.493 308.603 143.57 316.323 147.613L388.008 185.018C395.728 189.062 408.043 188.51 415.395 183.823C422.747 179.136 422.471 172.06 414.752 168.016Z" fill="white" stroke="#024246" stroke-width="0.834338" stroke-miterlimit="10" stroke-linecap="round" stroke-linejoin="round"/>
<path opacity="0.4" d="M395.544 167.464L343.159 139.25C341.321 138.239 341.137 135.666 342.883 134.471C343.802 133.828 344.905 133.828 345.824 134.287L398.209 162.501C400.047 163.512 400.231 166.086 398.485 167.28C397.658 167.924 396.555 167.924 395.544 167.464Z" fill="#ACD8DC"/>
<path d="M298.31 191.175C308.144 184.926 308.236 175.827 298.586 170.773C293.164 167.924 285.719 167.005 278.551 167.74C279.286 163.512 276.989 159.377 271.474 156.528C261.825 151.473 245.282 152.851 235.54 159.009C233.61 160.204 231.864 161.674 230.21 163.42C230.21 163.42 230.761 163.053 230.761 163.145C229.383 164.891 228.831 166.453 228.556 168.199C225.707 179.32 232.691 195.954 232.691 195.954C270.463 200.825 285.536 195.954 285.536 195.954L286.546 195.678C289.579 194.943 295.737 192.829 298.31 191.175Z" fill="#00B8C5"/>
<path d="M395.36 234.645L315.496 191.635C312.647 190.072 312.463 186.121 315.037 184.282C316.415 183.363 318.161 183.272 319.54 184.007L399.404 227.017C402.253 228.58 402.437 232.532 399.863 234.37C398.577 235.289 396.739 235.381 395.36 234.645Z" fill="#00B8C5"/>
<path d="M332.406 264.882L252.542 221.871C252.359 221.779 252.267 221.687 252.083 221.687L187.751 187.04C186.28 186.304 184.534 186.396 183.247 187.315C180.582 189.153 180.858 193.105 183.707 194.668L263.571 237.678C263.755 237.77 263.847 237.862 264.03 237.862L328.363 272.51C329.833 273.245 331.579 273.153 332.866 272.234C335.439 270.304 335.163 266.352 332.406 264.882Z" fill="#ACD8DC"/>
<path d="M307.684 283.997L227.82 240.987C227.637 240.895 227.545 240.803 227.361 240.803L163.029 206.155C161.558 205.42 159.812 205.512 158.525 206.431C155.86 208.269 156.136 212.221 158.985 213.783L238.849 256.794C239.033 256.886 239.125 256.978 239.308 256.978L303.641 291.625C305.111 292.361 306.857 292.269 308.144 291.35C310.717 289.512 310.533 285.468 307.684 283.997Z" fill="#ACD8DC"/>
<path d="M282.962 303.113L203.099 260.103C202.915 260.011 202.823 259.919 202.639 259.919L138.307 225.271C136.836 224.536 135.09 224.628 133.804 225.547C131.138 227.385 131.414 231.337 134.263 232.899L214.127 275.91C214.311 276.002 214.403 276.094 214.586 276.094L278.919 310.741C280.389 311.477 282.135 311.385 283.422 310.466C285.995 308.628 285.811 304.676 282.962 303.113Z" fill="#ACD8DC"/>
<path d="M380.839 248.707L300.975 205.696C298.126 204.134 297.943 200.182 300.516 198.344C301.894 197.425 303.641 197.333 305.019 198.068L384.883 241.079C387.732 242.641 387.916 246.593 385.342 248.431C384.056 249.442 382.31 249.534 380.839 248.707Z" fill="#00B8C5"/>
<path d="M216.149 341.437L176.63 320.207C174.7 319.196 172.311 319.748 171.024 321.494C169.554 323.608 170.197 326.549 172.495 327.835L212.105 349.157C213.943 350.168 216.24 349.708 217.619 347.962C219.365 345.756 218.63 342.815 216.149 341.437Z" fill="#00B8C5"/>
<path d="M235.54 328.111L175.252 295.669C173.322 294.658 170.933 295.21 169.738 296.956C168.175 299.07 168.911 302.01 171.208 303.297L231.68 335.831C233.519 336.842 235.816 336.382 237.195 334.636C238.757 332.43 237.93 329.398 235.54 328.111Z" fill="#00B8C5"/>
<path d="M176.355 245.582L172.862 244.387C165.418 241.814 157.239 242.917 150.806 247.512L144.005 252.291L140.972 254.497C140.421 254.864 140.512 255.783 141.156 256.059L144.464 257.438L152.919 260.746C159.72 263.411 167.256 262.86 173.598 259.276L177.458 257.07L176.355 245.582Z" fill="#024246"/>
<path d="M312.096 249.626L182.42 260.286C176.722 260.746 171.759 256.518 171.392 250.82C171.024 245.214 175.16 240.343 180.766 239.884L309.522 229.223L312.096 249.626Z" fill="#024246"/>
<path d="M303.549 246.501L302.538 232.899C302.262 229.775 304.652 227.109 307.776 226.834L309.706 226.65C312.831 226.374 315.496 228.764 315.772 231.888L316.783 245.49C317.058 248.615 314.669 251.28 311.544 251.556L309.614 251.739C306.49 252.015 303.732 249.626 303.549 246.501Z" fill="#024246"/>
<path d="M234.621 267.547C234.529 266.26 235.54 265.065 236.827 264.973L289.579 261.022C292.704 260.746 295.737 259.459 297.943 257.162C300.332 254.68 301.435 251.372 301.251 247.879L299.964 230.877L304.743 230.51L305.938 246.96C306.306 251.464 305.019 255.967 302.17 259.459C299.229 263.135 294.91 265.341 290.223 265.709L237.103 269.661C235.816 269.844 234.713 268.925 234.621 267.547Z" fill="#024246"/>
<path opacity="0.4" d="M465.926 481.366L346.543 417.953L500.389 298.846L619.772 362.259L465.926 481.366Z" fill="#ACD8DC"/>
<path d="M450.946 478.149L331.563 414.736L481.458 300.868L600.84 364.281L450.946 478.149Z" fill="white" stroke="#024246" stroke-width="0.861766" stroke-miterlimit="10" stroke-linecap="round" stroke-linejoin="round"/>
<path d="M553.785 358.4L513.624 337.078C513.532 337.078 513.44 336.986 513.44 336.986L481.09 319.8C480.355 319.433 479.527 319.433 478.792 319.984C477.506 320.903 477.598 322.925 479.068 323.66L519.23 344.982C519.322 344.982 519.413 345.074 519.413 345.074L551.763 362.26C552.499 362.627 553.326 362.627 554.061 362.076C555.348 361.157 555.164 359.227 553.785 358.4Z" fill="#ACD8DC"/>
<path d="M523.733 390.015L483.571 368.693C483.479 368.693 483.387 368.601 483.387 368.601L451.038 351.415C450.302 351.048 449.475 351.048 448.74 351.599C447.453 352.518 447.545 354.54 449.016 355.275L489.177 376.597C489.269 376.597 489.361 376.689 489.361 376.689L521.711 393.875C522.446 394.242 523.273 394.242 524.009 393.691C525.295 392.772 525.203 390.75 523.733 390.015Z" fill="#ACD8DC"/>
<path d="M503.422 409.59L463.261 388.268C463.169 388.268 463.077 388.176 463.077 388.176L430.727 370.99C429.992 370.623 429.164 370.623 428.429 371.174C427.143 372.093 427.234 374.115 428.705 374.85L468.867 396.172C468.958 396.172 469.05 396.264 469.05 396.264L501.4 413.45C502.136 413.817 502.963 413.817 503.698 413.266C504.985 412.347 504.801 410.417 503.422 409.59Z" fill="#ACD8DC"/>
<path d="M483.02 427.235L442.858 405.914C442.766 405.914 442.674 405.822 442.674 405.822L410.324 388.636C409.589 388.268 408.762 388.268 408.027 388.82C406.74 389.739 406.832 391.761 408.303 392.496L448.464 413.817C448.556 413.817 448.648 413.909 448.648 413.909L480.998 431.095C481.733 431.463 482.56 431.463 483.296 430.911C484.582 429.992 484.398 427.97 483.02 427.235Z" fill="#ACD8DC"/>
<path opacity="0.4" d="M192.33 385.971C179.188 395.345 157.407 397.091 142.61 390.106C142.151 390.382 141.783 390.658 141.324 390.933C143.254 393.507 146.103 395.896 149.687 397.826C164.391 405.73 187.367 404.259 200.969 394.518C214.111 385.052 213.652 371.266 200.234 363.179C200.234 363.271 200.234 363.271 200.142 363.363C204.002 370.807 201.428 379.446 192.33 385.971Z" fill="#ACD8DC"/>
<path opacity="0.4" d="M295.445 434.036C281.292 445.983 266.68 457.379 249.034 463.629C241.406 466.294 233.227 468.04 225.139 468.132C218.339 468.224 211.446 467.673 204.645 468.224C192.33 469.235 181.669 476.587 173.306 485.318C163.84 495.152 155.017 507.467 141.048 511.051C127.171 514.635 113.017 509.489 100.886 502.412C101.254 502.688 101.713 502.963 102.081 503.239C114.764 512.062 130.939 520.057 146.838 517.3C161.267 514.819 170.549 503.331 179.923 493.222C188.378 484.031 199.223 475.301 212.089 474.014C218.706 473.371 225.323 473.738 231.848 473.83C240.303 473.83 248.667 472.36 256.662 469.694C274.583 463.629 289.38 452.233 303.717 440.194C307.393 437.069 310.977 434.036 314.561 431.003L304.819 426.132C301.695 428.706 298.57 431.371 295.445 434.036Z" fill="#ACD8DC"/>
<path opacity="0.4" d="M141.048 389.279C138.291 387.809 135.993 386.062 134.247 384.224C127.079 388.82 120.002 393.507 113.018 398.286C99.1403 407.752 85.7224 419.056 79.5649 435.139C74.5102 448.281 75.8888 462.158 84.16 473.554C89.6742 481.182 97.7617 487.615 106.309 492.394C101.254 488.626 96.6589 484.215 93.0747 479.436C84.3439 467.581 83.241 453.152 88.7552 439.642C95.1884 424.018 108.331 413.082 121.932 403.8C128.366 399.48 134.799 395.161 141.324 390.933C141.783 390.658 142.151 390.382 142.61 390.106C142.059 389.83 141.508 389.555 141.048 389.279Z" fill="#ACD8DC"/>
<path opacity="0.4" d="M439.917 315.94L420.985 307.302C420.066 306.934 419.331 306.383 418.688 305.647C408.946 304.912 398.745 305.923 389.738 308.772C385.602 310.886 381.375 313.459 376.78 316.308L359.961 327.428L305.739 363.638C290.023 373.564 283.314 379.629 290.758 386.798C293.332 383.03 299.03 378.894 307.209 373.748L361.432 337.538L378.25 326.417C392.771 317.227 403.523 311.437 419.147 314.286C419.882 315.573 421.077 316.584 422.548 317.319L441.48 325.958C445.339 327.704 449.935 326.05 451.773 322.098C453.243 318.881 452.324 315.113 449.659 313C447.637 316.216 443.501 317.503 439.917 315.94Z" fill="#ACD8DC"/>
<path opacity="0.4" d="M476.311 394.701C476.954 394.426 477.322 394.242 477.322 394.242L501.86 378.159C513.348 370.807 516.748 360.973 512.429 352.334C511.418 357.94 507.374 363.454 500.298 368.049L475.759 384.132C475.759 384.132 475.392 384.316 474.749 384.592C474.565 384.868 474.289 385.052 474.013 385.235L406.373 429.257C389.554 440.102 367.865 444.145 341.489 427.419C336.25 429.257 329.45 429.073 324.763 426.776L312.08 420.434C309.599 422.272 307.209 424.202 304.82 426.132L314.561 431.003L326.325 436.885C331.012 439.182 337.721 439.366 343.051 437.528C369.519 454.255 391.117 450.211 407.935 439.366L475.576 395.345C475.851 395.161 476.127 394.977 476.311 394.701Z" fill="#ACD8DC"/>
<path opacity="0.4" d="M291.402 410.049C286.898 407.752 285.612 404.076 287.726 400.859C280.281 397.275 275.778 393.415 273.389 389.647C271.459 396.723 275.227 404.167 289.288 410.968C287.174 414.185 288.369 417.861 292.964 420.159L293.332 420.342C295.629 418.412 298.019 416.482 300.408 414.553L291.402 410.049Z" fill="#ACD8DC"/>
<path opacity="0.4" d="M491.107 339.008C489.177 339.743 486.972 339.835 485.042 338.916L466.11 330.277C465.466 330.002 464.915 329.634 464.364 329.175C464.18 329.45 463.996 329.818 463.812 330.094C462.066 333.954 463.72 338.549 467.672 340.387L486.604 349.026C488.626 349.945 490.832 349.945 492.67 349.118C494.692 350.588 496.346 352.058 497.449 353.437C499.746 348.842 498.368 344.339 491.107 339.008Z" fill="#ACD8DC"/>
<path d="M474.748 384.592C475.392 384.316 475.759 384.132 475.759 384.132L500.298 368.049C507.374 363.454 511.418 357.94 512.429 352.334C513.899 344.246 509.028 336.067 498 330.369L495.335 328.99C496.07 330.92 496.07 333.034 495.151 335.056C494.324 336.894 492.762 338.272 491.015 339.008C498.276 344.338 499.746 348.841 497.357 353.437C494.967 358.032 488.718 362.719 480.63 368.325L467.488 377.056C471.44 374.39 477.322 381.375 474.748 384.592Z" fill="white" stroke="#024246" stroke-width="0.834338" stroke-miterlimit="10" stroke-linecap="round" stroke-linejoin="round"/>
<path d="M350.128 422.364L345.257 425.581C344.154 426.316 342.868 426.96 341.489 427.419C367.957 444.146 389.554 440.102 406.373 429.257L474.013 385.236C474.289 385.052 474.565 384.776 474.749 384.592C477.322 381.376 471.348 374.391 467.488 376.964L408.027 414.92C387.624 429.165 376.964 432.658 352.977 419.424C352.425 420.526 351.506 421.537 350.128 422.364Z" fill="#024246"/>
<path d="M296.824 404.719C293.423 403.432 290.391 402.238 287.725 400.951C285.612 404.168 286.806 407.844 291.402 410.141L300.408 414.645C305.371 410.693 310.609 407.017 316.215 403.8C322.741 400.124 328.99 409.866 322.465 413.542C318.789 415.656 315.388 417.953 312.08 420.435L324.762 426.776C329.45 429.073 336.158 429.257 341.489 427.419C342.867 426.96 344.154 426.316 345.257 425.581L350.128 422.365C351.414 421.446 352.425 420.526 353.069 419.516C354.999 416.391 353.712 412.807 349.209 410.601L315.848 393.966C311.345 391.761 305.003 391.485 299.857 393.047C302.981 394.702 306.658 396.356 311.069 398.194L296.824 404.719Z" fill="#024246"/>
<path d="M359.87 327.52L376.688 316.4C381.283 313.459 385.511 310.886 389.646 308.864C398.469 304.452 406.832 302.339 417.493 304.36C416.206 302.247 415.931 299.49 417.033 297.1C417.309 296.549 417.585 296.089 417.86 295.722C402.329 294.343 385.602 297.652 374.298 305.279L352.333 319.984C357.021 316.584 362.259 325.774 359.87 327.52Z" fill="white" stroke="#024246" stroke-width="0.834338" stroke-miterlimit="10" stroke-linecap="round" stroke-linejoin="round"/>
<path d="M287.725 400.951C290.391 402.237 293.423 403.524 296.824 404.719L311.069 398.102C306.658 396.264 302.981 394.609 299.857 392.955C295.721 390.841 292.688 388.819 290.666 386.889C283.222 379.721 289.931 373.563 305.647 363.73L359.869 327.52C362.259 325.774 357.02 316.583 352.425 319.8L285.704 363.73C274.859 371.082 267.599 380.456 273.297 389.738C275.778 393.506 280.373 397.274 287.725 400.951Z" fill="#024246"/>
<path d="M417.677 304.269C417.952 304.728 418.32 305.188 418.78 305.647C419.423 306.291 420.158 306.842 421.077 307.301L440.009 315.94C443.502 317.595 447.637 316.308 449.751 313.091C449.935 312.816 450.119 312.448 450.302 312.172C452.049 308.312 450.394 303.717 446.442 301.879L427.51 293.24C424.11 291.678 420.25 292.781 418.136 295.63C417.769 296.089 417.493 296.549 417.309 297.008C416.114 299.398 416.39 302.155 417.677 304.269Z" fill="#024246"/>
<path d="M484.95 338.824C486.972 339.743 489.177 339.743 491.016 338.916C492.762 338.181 494.324 336.802 495.151 334.964C496.07 333.034 496.07 330.829 495.335 328.899C494.6 327.061 493.221 325.498 491.383 324.671L472.451 316.032C468.591 314.286 463.996 315.94 462.158 319.892C460.687 323.109 461.606 326.877 464.272 328.991C464.823 329.45 465.374 329.818 466.018 330.093L484.95 338.824Z" fill="#024246"/>
<path d="M141.048 389.279C141.599 389.555 142.151 389.83 142.61 390.106C157.407 397.091 179.188 395.436 192.33 385.97C201.428 379.445 204.002 370.806 200.234 363.454C199.407 365.844 197.936 368.141 195.914 370.347L193.341 372.828C192.79 373.288 192.146 373.747 191.595 374.207C178.728 383.397 157.591 385.235 142.794 378.71C139.945 380.548 137.096 382.386 134.155 384.224C135.993 386.062 138.291 387.808 141.048 389.279Z" fill="#ACD8DC" stroke="#024246" stroke-width="0.834338" stroke-miterlimit="10" stroke-linecap="round" stroke-linejoin="round"/>
<path d="M148.125 361.34C146.93 358.032 148.308 354.356 152.26 351.507C158.693 346.912 169.538 346.176 176.523 349.944C183.507 353.712 183.967 360.513 177.534 365.108C172.479 368.693 164.851 369.887 158.326 368.509C153.087 371.909 147.941 375.218 142.702 378.526C157.407 385.051 178.636 383.213 191.503 374.023C192.146 373.564 192.698 373.104 193.249 372.645C194.168 371.817 195.087 371.082 195.822 370.163C197.844 367.957 199.315 365.66 200.142 363.27C200.142 363.178 200.142 363.179 200.234 363.087C202.899 355.367 199.223 347.187 189.389 341.857C174.685 333.953 151.709 335.424 138.107 345.166C129.009 351.691 126.435 360.33 130.203 367.682C130.847 368.877 131.582 370.071 132.593 371.174C137.831 368.049 142.978 364.741 148.125 361.34Z" fill="white" stroke="#024246" stroke-width="0.834338" stroke-miterlimit="10" stroke-linecap="round" stroke-linejoin="round"/>
<path d="M177.534 365.201C183.967 360.605 183.507 353.805 176.523 350.037C169.538 346.269 158.693 347.004 152.26 351.599C148.308 354.448 146.93 358.124 148.125 361.433C150.514 359.87 152.812 358.4 155.201 356.837C161.45 352.794 167.792 362.535 161.45 366.579C160.44 367.222 159.429 367.958 158.326 368.601C164.851 369.98 172.571 368.785 177.534 365.201Z" fill="#024246"/>
<path d="M141.048 511.051C155.017 507.467 163.84 495.152 173.306 485.318C181.669 476.587 192.33 469.235 204.645 468.224C211.446 467.673 218.339 468.224 225.139 468.132C233.227 467.948 241.406 466.294 249.034 463.629C266.68 457.379 281.292 445.983 295.445 434.036C298.57 431.371 301.695 428.706 304.82 426.132C307.209 424.202 309.598 422.272 312.08 420.434C315.388 417.953 318.789 415.655 322.465 413.542C328.99 409.866 322.649 400.032 316.215 403.8C310.609 406.925 305.463 410.693 300.408 414.645C298.019 416.574 295.629 418.504 293.332 420.434C282.579 429.441 272.194 438.999 259.879 445.983C253.17 449.752 246.093 452.784 238.557 454.714C231.205 456.552 223.945 456.644 216.409 456.552C205.013 456.369 194.26 457.104 184.059 462.618C171.744 469.235 163.381 479.528 153.823 489.362C149.687 493.589 145.092 497.633 139.394 499.563C132.409 501.861 124.781 500.482 117.98 497.909C114.029 496.438 110.077 494.6 106.217 492.395C97.6697 487.616 89.5823 481.182 84.0681 473.554C75.7968 462.158 74.4183 448.281 79.4729 435.139C85.6304 419.056 99.0483 407.752 112.926 398.286C119.91 393.507 126.987 388.82 134.155 384.225C137.004 382.387 139.853 380.548 142.794 378.71C148.033 375.402 153.179 372.001 158.418 368.693C159.429 368.05 160.44 367.314 161.542 366.671C167.792 362.627 161.542 352.794 155.293 356.929C152.904 358.492 150.606 359.962 148.217 361.524C143.07 364.833 137.831 368.233 132.685 371.542C131.582 372.277 130.479 372.92 129.468 373.656C122.576 378.067 115.775 382.57 108.974 387.074C95.4641 396.172 82.322 406.465 73.8669 420.618C65.7794 434.036 62.287 450.946 67.3417 466.11C72.0288 480.171 83.0571 490.832 95.1884 498.92C97.0264 500.206 99.0483 501.401 101.07 502.596C113.018 509.489 127.171 514.635 141.048 511.051Z" fill="#024246"/>
</svg>
