<svg width="71" height="71" viewBox="0 0 71 71" fill="none" xmlns="http://www.w3.org/2000/svg">
<rect width="71" height="71" rx="6" fill="#E6F5F7"/>
<path d="M15.9041 31.4127C16.2851 31.4127 16.594 31.1038 16.594 30.7228V22.2615C16.594 21.182 17.4722 20.3037 18.5518 20.3037H52.448C53.5275 20.3037 54.4058 21.1819 54.4058 22.2615V27.4117C54.4058 27.7927 54.7146 28.1016 55.0957 28.1016C55.4767 28.1016 55.7855 27.7927 55.7855 27.4117V22.2615C55.7855 20.4212 54.2883 18.9241 52.4481 18.9241H18.5518C16.7115 18.9241 15.2144 20.4213 15.2144 22.2615V30.7228C15.2144 31.1039 15.5232 31.4127 15.9041 31.4127Z" fill="#05A18F"/>
<path d="M58.3101 46.6669H55.7855V30.1703C55.7855 29.7893 55.4766 29.4804 55.0957 29.4804C54.7147 29.4804 54.4058 29.7893 54.4058 30.1703V46.6669H52.6914V42.3874C52.6914 42.0065 52.3825 41.6976 52.0016 41.6976C51.6206 41.6976 51.3117 42.0065 51.3117 42.3874V46.6669H39.7352C39.3543 46.6669 39.0454 46.9758 39.0454 47.3568V47.8874C39.0454 48.0199 38.9376 48.1277 38.8051 48.1277H30.3469C30.2144 48.1277 30.1067 48.0199 30.1067 47.8874V47.3568C30.1067 46.9758 29.7978 46.6669 29.4168 46.6669H19.6881V23.397H51.3118V39.6281C51.3118 40.0091 51.6207 40.318 52.0017 40.318C52.3826 40.318 52.6915 40.0091 52.6915 39.6281V22.7072C52.6915 22.3262 52.3826 22.0173 52.0017 22.0173H18.9983C18.6174 22.0173 18.3085 22.3261 18.3085 22.7072V46.6669H16.5941V33.4814C16.5941 33.1004 16.2852 32.7915 15.9042 32.7915C15.5233 32.7915 15.2144 33.1004 15.2144 33.4814V46.6669H12.6899C12.3089 46.6669 12 46.9758 12 47.3568V49.4548C12 50.899 13.1749 52.0739 14.6191 52.0739H56.3808C57.825 52.0739 58.9999 50.8989 58.9999 49.4548V47.3568C59 46.9757 58.6911 46.6669 58.3101 46.6669ZM57.6204 49.4548C57.6204 50.1383 57.0644 50.6943 56.3808 50.6943H14.6191C13.9356 50.6943 13.3796 50.1383 13.3796 49.4548V48.0466H28.7349C28.8152 48.8653 29.5075 49.5073 30.3471 49.5073H38.8053C39.6448 49.5073 40.3372 48.8653 40.4175 48.0466H57.6204V49.4548Z" fill="#05A18F"/>
<path d="M31.1614 41.1947C30.9715 41.5241 31.0846 41.9452 31.4139 42.1351C32.6512 42.8484 34.064 43.2253 35.4997 43.2253C40.0163 43.2253 43.6908 39.5508 43.6908 35.0342C43.6908 30.5176 40.0163 26.843 35.4997 26.843C30.9831 26.843 27.3086 30.5176 27.3086 35.0342C27.3086 36.9038 27.955 38.7323 29.1288 40.183C29.368 40.4786 29.8015 40.5243 30.0971 40.2852C30.3927 40.0461 30.4385 39.6125 30.1993 39.3169C29.209 38.093 28.6855 36.612 28.6855 35.0342C28.6855 31.2769 31.7424 28.22 35.4997 28.22C39.2571 28.22 42.3139 31.2768 42.3139 35.0342C42.3139 38.7916 39.2571 41.8484 35.4997 41.8484C34.3051 41.8484 33.13 41.535 32.1017 40.9421C31.7724 40.7523 31.3514 40.8653 31.1614 41.1947Z" fill="#05A18F"/>
<path d="M33.933 39.0355C34.0772 39.0355 34.2206 38.9902 34.3411 38.9015L38.8439 35.588C39.0201 35.4582 39.1243 35.2523 39.1243 35.0335C39.1243 34.8146 39.0202 34.6087 38.8439 34.479L34.3411 31.1655C34.132 31.0116 33.8542 30.9884 33.6224 31.1056C33.3907 31.2227 33.2446 31.4603 33.2446 31.72V38.3469C33.2446 38.6066 33.3907 38.8442 33.6224 38.9613C33.7206 39.011 33.827 39.0355 33.933 39.0355ZM34.6216 33.0815L37.2742 35.0336L34.6216 36.9857V33.0815Z" fill="#05A18F"/>
</svg>
