<svg width="67" height="67" viewBox="0 0 67 67" fill="none" xmlns="http://www.w3.org/2000/svg">
<rect width="67" height="67" rx="6" fill="#E6F5F7"/>
<g clip-path="url(#clip0)">
<path d="M29.7803 14.7908C29.7803 15.1386 30.0622 15.4207 30.4102 15.4207H34.6279C34.9759 15.4207 35.2578 15.1386 35.2578 14.7908C35.2578 14.4429 34.9759 14.1609 34.6279 14.1609H30.4102C30.0622 14.1609 29.7803 14.4429 29.7803 14.7908Z" fill="#05A18F"/>
<path d="M34.4562 51.049C34.4562 49.9809 33.5872 49.1119 32.5191 49.1119C31.451 49.1119 30.582 49.9809 30.582 51.049C30.582 52.1172 31.451 52.9861 32.5191 52.9861C33.5872 52.9861 34.4562 52.1172 34.4562 51.049ZM31.8417 51.049C31.8417 50.6756 32.1456 50.3717 32.519 50.3717C32.8925 50.3717 33.1964 50.6756 33.1964 51.049C33.1964 51.4225 32.8925 51.7264 32.519 51.7264C32.1456 51.7264 31.8417 51.4226 31.8417 51.049Z" fill="#05A18F"/>
<path d="M35.3618 20.5178H43.2996C43.6475 20.5178 43.9295 20.2358 43.9295 19.8879C43.9295 19.5401 43.6475 19.2581 43.2996 19.2581H35.3618C35.0139 19.2581 34.7319 19.5401 34.7319 19.8879C34.7319 20.2358 35.0139 20.5178 35.3618 20.5178Z" fill="#05A18F"/>
<path d="M35.3618 23.0038H43.2996C43.6475 23.0038 43.9295 22.7218 43.9295 22.3739C43.9295 22.026 43.6475 21.744 43.2996 21.744H35.3618C35.0139 21.744 34.7319 22.026 34.7319 22.3739C34.7319 22.7218 35.0139 23.0038 35.3618 23.0038Z" fill="#05A18F"/>
<path d="M43.9295 24.8599C43.9295 24.512 43.6475 24.23 43.2996 24.23H35.3618C35.0139 24.23 34.7319 24.512 34.7319 24.8599C34.7319 25.2077 35.0139 25.4897 35.3618 25.4897H43.2996C43.6475 25.4897 43.9295 25.2077 43.9295 24.8599Z" fill="#05A18F"/>
<path d="M31.1044 12H23.7323C21.8062 12 20.2393 13.567 20.2393 15.4931V51.5069C20.2393 53.4329 21.8062 55 23.7323 55H41.3054C43.2316 55 44.7985 53.4329 44.7985 51.5069V28.346C45.9126 28.1475 46.7612 27.1722 46.7612 26.0021V18.723C46.7612 17.5528 45.9126 16.5777 44.7985 16.3792V15.4931C44.7985 13.567 43.2315 12 41.3053 12H34.0437C33.6958 12 33.4139 12.282 33.4139 12.6299C33.4139 12.9777 33.6958 13.2598 34.0437 13.2598H41.3053C42.5368 13.2598 43.5387 14.2616 43.5387 15.4931V16.3416C42.7163 16.3416 24.6486 16.3416 23.7322 16.3416C23.2446 16.3416 22.848 16.7383 22.848 17.2257V47.6693C22.848 48.1569 23.2447 48.5536 23.7322 48.5536H41.3053C41.7929 48.5536 42.1895 48.1569 42.1895 47.6693V39.1387C42.1895 38.7908 41.9076 38.5088 41.5596 38.5088C41.2117 38.5088 40.9297 38.7908 40.9297 39.1387V47.2938H24.1078V20.8704H31.9442V26.0021C31.9442 26.0636 31.9473 26.1242 31.952 26.1845C28.3841 26.4742 25.5689 29.4683 25.5689 33.1095C25.5689 36.9579 28.702 40.0595 32.5189 40.0595C36.3416 40.0595 39.4689 36.946 39.4689 33.1095C39.4689 31.3239 38.7971 29.6514 37.6162 28.3835H40.6042C40.5354 28.5097 40.584 28.4287 39.5871 29.9959C39.3641 30.3465 39.397 30.793 39.669 31.1071C39.9456 31.4266 40.3879 31.5132 40.7572 31.347L40.9299 31.2692V36.1993C40.9299 36.5472 41.2118 36.8292 41.5598 36.8292C41.9077 36.8292 42.1897 36.5472 42.1897 36.1993V30.6855C42.6993 30.41 43.1551 30.0544 43.5388 29.6429V51.507C43.5388 52.7385 42.5369 53.7404 41.3054 53.7404H23.7322C22.5008 53.7404 21.4989 52.7385 21.4989 51.507V15.4931C21.4989 14.2616 22.5008 13.2598 23.7322 13.2598H31.1043C31.4523 13.2598 31.7342 12.9777 31.7342 12.6299C31.7342 12.282 31.4523 12 31.1044 12V12ZM26.1238 19.6106H24.1078V17.6014H26.1238V19.6106ZM31.9442 18.723V19.6105H27.3836V17.6014H32.2252C32.0447 17.9372 31.9442 18.3314 31.9442 18.723ZM35.9298 37.6611C34.9235 38.4172 33.7128 38.7997 32.5189 38.7997C31.3275 38.7997 30.1171 38.4192 29.108 37.6611V36.1783C29.108 35.4106 29.7326 34.786 30.5002 34.786H34.5375C35.3053 34.786 35.9298 35.4106 35.9298 36.1783V37.6611ZM30.8379 31.8454C30.8379 30.9185 31.592 30.1644 32.5189 30.1644C33.4457 30.1644 34.1998 30.9185 34.1998 31.8454C34.1998 32.7722 33.4457 33.5263 32.5189 33.5263C31.592 33.5263 30.8379 32.7722 30.8379 31.8454ZM38.2091 33.1095C38.2091 34.3148 37.8313 35.433 37.1894 36.354V36.1783C37.1894 34.8426 36.1968 33.735 34.9105 33.5531C35.2555 33.0713 35.4595 32.4819 35.4595 31.8454C35.4595 30.224 34.1403 28.9047 32.5188 28.9047C30.8972 28.9047 29.5781 30.224 29.5781 31.8454C29.5781 32.4819 29.782 33.0713 30.127 33.5531C28.8408 33.7351 27.8481 34.8427 27.8481 36.1783V36.3541C27.2063 35.433 26.8285 34.3148 26.8285 33.1095C26.8285 30.0069 29.3244 27.4765 32.4136 27.4202C32.8636 28.0253 33.5734 28.3835 34.3254 28.3835H35.6864C37.2696 29.4448 38.2091 31.1985 38.2091 33.1095ZM43.2867 27.8078C42.8696 28.6661 42.1986 29.3158 41.2372 29.7489C41.5637 29.2356 41.7797 28.9338 41.9813 28.3931C42.2109 27.7769 41.7557 27.1237 41.1032 27.1237C39.7635 27.1237 35.7448 27.1237 34.3256 27.1237C33.6971 27.1237 33.204 26.5986 33.204 26.0021C33.204 25.2778 33.204 19.4525 33.204 18.7231C33.204 18.1046 33.7071 17.6015 34.3256 17.6015H44.3798C44.9982 17.6015 45.5014 18.1046 45.5014 18.7231V26.0021C45.5014 26.6206 44.9982 27.1237 44.3798 27.1237C43.9154 27.1237 43.486 27.3972 43.2867 27.8078Z" fill="#05A18F"/>
</g>
<defs>
<clipPath id="clip0">
<rect width="43" height="43" fill="white" transform="translate(12 12)"/>
</clipPath>
</defs>
</svg>
