<svg width="67" height="67" viewBox="0 0 67 67" fill="none" xmlns="http://www.w3.org/2000/svg">
<rect y="0.1875" width="66.6705" height="66.625" rx="6" fill="#E6F5F7"/>
<path d="M12.0227 54.8125C12.0227 54.8125 11.3352 44.5 17.5227 42.4375L27.8352 39V34.875" stroke="#05A18F" stroke-width="1.5" stroke-miterlimit="10" stroke-linecap="round" stroke-linejoin="round"/>
<path d="M38.8354 34.875V39L49.1479 42.4375C55.3354 44.5 54.6479 54.8125 54.6479 54.8125" stroke="#05A18F" stroke-width="1.5" stroke-miterlimit="10" stroke-linecap="round" stroke-linejoin="round"/>
<path d="M36.7725 35.5625C41.585 33.5 42.0662 27.9313 42.6162 23.6688C42.8912 21.3313 42.96 18.8562 41.86 16.725C40.8287 14.8 38.9725 13.425 36.91 12.7375C35.81 12.3937 34.5725 12.1875 33.335 12.1875C32.0975 12.1875 30.86 12.3937 29.76 12.8062C27.6975 13.4937 25.8412 14.8687 24.81 16.7937C23.71 18.925 23.7787 21.4 24.0537 23.7375C24.6037 27.9312 25.085 33.5 29.8975 35.5625" stroke="#05A18F" stroke-width="1.5" stroke-miterlimit="10" stroke-linecap="round" stroke-linejoin="round"/>
<path d="M27.1479 21.8125C34.0229 21.8125 35.3979 20.4375 36.0854 18.375C36.0854 18.375 36.0854 21.8125 39.5229 21.8125" stroke="#05A18F" stroke-width="1.5" stroke-miterlimit="10" stroke-linecap="square" stroke-linejoin="round"/>
<path d="M27.8354 39C27.8354 43.125 33.3354 46.5625 33.3354 46.5625C33.3354 46.5625 38.8354 43.125 38.8354 39" stroke="#05A18F" stroke-width="1.5" stroke-miterlimit="10" stroke-linecap="round" stroke-linejoin="round"/>
<path d="M25.7732 39.6875C23.0232 41.75 23.7107 45.1875 23.7107 45.1875" stroke="#05A18F" stroke-width="1.5" stroke-miterlimit="10" stroke-linecap="round" stroke-linejoin="round"/>
<path d="M26.4604 54.8125H28.5229V52.0625C28.5229 49.0375 26.4604 45.1875 23.7104 45.1875C20.9604 45.1875 18.8979 49.0375 18.8979 52.0625V54.8125H20.9604" stroke="#05A18F" stroke-width="1.5" stroke-miterlimit="10" stroke-linecap="round" stroke-linejoin="round"/>
<path d="M40.8979 39.6875C42.9604 40.375 42.9604 46.5625 42.9604 46.5625V47.9375" stroke="#05A18F" stroke-width="1.5" stroke-miterlimit="10" stroke-linecap="round" stroke-linejoin="round"/>
<path d="M42.9604 54.8125C44.8589 54.8125 46.3979 53.2735 46.3979 51.375C46.3979 49.4765 44.8589 47.9375 42.9604 47.9375C41.062 47.9375 39.5229 49.4765 39.5229 51.375C39.5229 53.2735 41.062 54.8125 42.9604 54.8125Z" stroke="#05A18F" stroke-width="1.5" stroke-miterlimit="10" stroke-linecap="round" stroke-linejoin="round"/>
</svg>
