<svg width="71" height="71" viewBox="0 0 71 71" fill="none" xmlns="http://www.w3.org/2000/svg">
<rect width="71" height="71" rx="6" fill="#E6F5F7"/>
<path d="M50.2173 23.0376C49.8371 23.0376 49.5289 23.3459 49.5289 23.7261V54.6324C49.5289 54.6586 49.5077 54.6798 49.4815 54.6798H25.1982C24.818 54.6798 24.5098 54.988 24.5098 55.3682C24.5098 55.7485 24.818 56.0567 25.1982 56.0567H49.4815C50.2669 56.0567 50.9058 55.4178 50.9058 54.6324V23.7261C50.9058 23.3459 50.5976 23.0376 50.2173 23.0376Z" fill="#05A18F"/>
<path d="M52.4246 14.9434H46.0871L43.7764 12.6328C43.3684 12.2247 42.826 12 42.2489 12H18.5752C17.7898 12 17.1509 12.6389 17.1509 13.4243V54.6323C17.1509 55.4177 17.7898 56.0566 18.5752 56.0566H20.0943V57.5757C20.0943 58.3611 20.7332 59 21.5186 59H52.4246C53.21 59 53.8489 58.3611 53.8489 57.5757V16.3678C53.8489 15.5824 53.21 14.9434 52.4246 14.9434ZM42.8111 13.6147L49.2908 20.0944H42.8585C42.8323 20.0944 42.8111 20.0732 42.8111 20.047V13.6147ZM52.472 57.5758C52.472 57.6019 52.4508 57.6231 52.4246 57.6231H21.5186C21.4924 57.6231 21.4712 57.6019 21.4712 57.5758V56.0567H22.2542C22.6345 56.0567 22.9427 55.7485 22.9427 55.3682C22.9427 54.988 22.6345 54.6798 22.2542 54.6798H18.5752C18.549 54.6798 18.5278 54.6586 18.5278 54.6324V13.4243C18.5278 13.3982 18.549 13.377 18.5752 13.377H41.4341V20.047C41.4341 20.8324 42.073 21.4713 42.8585 21.4713H50.2171C50.5973 21.4713 50.9056 21.1631 50.9056 20.7829V20.6566C50.9056 20.0797 50.6809 19.5372 50.2728 19.1291L47.464 16.3203H52.4246C52.4508 16.3203 52.472 16.3415 52.472 16.3677V57.5758Z" fill="#05A18F"/>
<path d="M30.8357 19.865C30.5668 19.5961 30.1308 19.5961 29.8621 19.865L25.9672 23.7598C25.9487 23.7783 25.9186 23.7783 25.9002 23.7598L24.3475 22.2072H25.5427C25.923 22.2072 26.2312 21.8989 26.2312 21.5187C26.2312 21.1385 25.923 20.8302 25.5427 20.8302H23.7261C23.5059 20.8302 23.2981 20.8819 23.1118 20.9715L22.7412 20.6009C22.4723 20.332 22.0364 20.332 21.7676 20.6009C21.4987 20.8698 21.4987 21.3057 21.7676 21.5745L22.3088 22.1158C22.3044 22.1614 22.3018 22.2076 22.3018 22.2545V26.6696C22.3018 27.455 22.9407 28.0939 23.7262 28.0939H28.1413C28.9267 28.0939 29.5656 27.455 29.5656 26.6696V22.1086L30.8357 20.8386C31.1045 20.5697 31.1045 20.1338 30.8357 19.865ZM28.1887 26.6697C28.1887 26.6959 28.1675 26.7171 28.1413 26.7171H23.7262C23.7 26.7171 23.6788 26.6959 23.6788 26.6697V23.4856L24.9266 24.7333C25.2043 25.011 25.569 25.1499 25.9338 25.1499C26.2985 25.1499 26.6632 25.011 26.9409 24.7333L28.1887 23.4856V26.6697Z" fill="#05A18F"/>
<path d="M28.1412 30.3962H23.7261C22.9407 30.3962 22.3018 31.0351 22.3018 31.8206V36.2357C22.3018 37.0211 22.9407 37.66 23.7261 37.66H28.1412C28.9267 37.66 29.5656 37.0211 29.5656 36.2357V31.8206C29.5656 31.0352 28.9267 30.3962 28.1412 30.3962ZM28.1886 36.2357C28.1886 36.2619 28.1674 36.2831 28.1412 36.2831H23.7261C23.6999 36.2831 23.6787 36.2619 23.6787 36.2357V31.8206C23.6787 31.7944 23.6999 31.7732 23.7261 31.7732H28.1412C28.1674 31.7732 28.1886 31.7944 28.1886 31.8206V36.2357Z" fill="#05A18F"/>
<path d="M28.1412 39.9626H23.7261C22.9407 39.9626 22.3018 40.6016 22.3018 41.387V45.8021C22.3018 46.5875 22.9407 47.2265 23.7261 47.2265H28.1412C28.9267 47.2265 29.5656 46.5875 29.5656 45.8021V41.387C29.5656 40.6016 28.9267 39.9626 28.1412 39.9626ZM28.1886 45.8021C28.1886 45.8283 28.1674 45.8495 28.1412 45.8495H23.7261C23.6999 45.8495 23.6787 45.8282 23.6787 45.8021V41.387C23.6787 41.3608 23.6999 41.3396 23.7261 41.3396H28.1412C28.1674 41.3396 28.1886 41.3608 28.1886 41.387V45.8021Z" fill="#05A18F"/>
<path d="M39.1793 22.302H32.5566C32.1764 22.302 31.8682 22.6103 31.8682 22.9905C31.8682 23.3707 32.1763 23.679 32.5566 23.679H39.1793C39.5596 23.679 39.8678 23.3707 39.8678 22.9905C39.8678 22.6103 39.5596 22.302 39.1793 22.302Z" fill="#05A18F"/>
<path d="M45.0662 25.2456H32.5566C32.1764 25.2456 31.8682 25.5539 31.8682 25.9341C31.8682 26.3143 32.1763 26.6226 32.5566 26.6226H45.0662C45.4464 26.6226 45.7547 26.3143 45.7547 25.9341C45.7547 25.5539 45.4465 25.2456 45.0662 25.2456Z" fill="#05A18F"/>
<path d="M39.1793 31.8682H32.5566C32.1764 31.8682 31.8682 32.1764 31.8682 32.5566C31.8682 32.9369 32.1763 33.2451 32.5566 33.2451H39.1793C39.5596 33.2451 39.8678 32.9369 39.8678 32.5566C39.8678 32.1764 39.5596 31.8682 39.1793 31.8682Z" fill="#05A18F"/>
<path d="M45.0662 34.8115H32.5566C32.1764 34.8115 31.8682 35.1198 31.8682 35.5C31.8682 35.8802 32.1763 36.1885 32.5566 36.1885H45.0662C45.4464 36.1885 45.7547 35.8802 45.7547 35.5C45.7547 35.1198 45.4465 34.8115 45.0662 34.8115Z" fill="#05A18F"/>
<path d="M39.1793 41.4343H32.5566C32.1764 41.4343 31.8682 41.7426 31.8682 42.1228C31.8682 42.503 32.1763 42.8113 32.5566 42.8113H39.1793C39.5596 42.8113 39.8678 42.503 39.8678 42.1228C39.8678 41.7426 39.5596 41.4343 39.1793 41.4343Z" fill="#05A18F"/>
<path d="M45.0662 44.3777H32.5566C32.1764 44.3777 31.8682 44.6859 31.8682 45.0662C31.8682 45.4464 32.1763 45.7546 32.5566 45.7546H45.0662C45.4464 45.7546 45.7547 45.4464 45.7547 45.0662C45.7547 44.6859 45.4465 44.3777 45.0662 44.3777Z" fill="#05A18F"/>
</svg>
