<svg width="68" height="69" viewBox="0 0 68 69" fill="none" xmlns="http://www.w3.org/2000/svg">
<rect y="0.847412" width="67.3054" height="67.3054" rx="6" fill="#E6F5F7"/>
<g clip-path="url(#clip0)">
<path d="M53.8252 15.8022H13.4802C12.664 15.8022 12 16.4663 12 17.2824V22.4922C12 23.3124 13.2687 23.3124 13.2687 22.4922V17.2824C13.2687 17.1659 13.3635 17.071 13.4802 17.071H53.8252C53.9419 17.071 54.0367 17.1659 54.0367 17.2824V48.2169C54.0367 48.3335 53.9419 48.4284 53.8252 48.4284H45.696V47.1084H52.0763C52.4267 47.1084 52.7106 46.8244 52.7106 46.4741V39.8312C52.7106 39.011 51.4419 39.011 51.4419 39.8312V45.8397H45.696V43.0251C45.7166 43.0269 45.7374 43.0287 45.757 43.0304C46.2836 43.0767 46.9386 43.1343 47.3924 42.6797C47.8456 42.2256 47.7883 41.5699 47.7422 41.043C47.6925 40.4776 47.746 40.3228 48.1806 39.9616C49.2995 39.0312 49.3203 38.035 48.1806 37.0875C47.746 36.726 47.6928 36.5714 47.7422 36.0059C47.8663 34.5869 47.2036 33.8915 45.757 34.0186C45.1924 34.0682 45.0392 34.0145 44.6793 33.5799C43.7503 32.4583 42.7534 32.4376 41.8072 33.5799C41.4473 34.0145 41.2942 34.0683 40.7296 34.0186C39.3096 33.8938 38.6176 34.5603 38.7443 36.0059C38.7937 36.5715 38.7405 36.726 38.3059 37.0875C37.187 38.0178 37.1663 39.0142 38.3059 39.9616C38.7405 40.3231 38.7937 40.4777 38.7443 41.0432C38.6111 42.563 39.337 43.1507 40.7903 43.0252V45.8399H15.8636V19.6596H51.4419V36.4479C51.4419 37.2681 52.7106 37.2681 52.7106 36.4479V19.0252C52.7106 18.6749 52.4267 18.3908 52.0763 18.3908H15.2292C14.8788 18.3908 14.5949 18.6749 14.5949 19.0252V46.4741C14.5949 46.8244 14.8788 47.1084 15.2292 47.1084H40.7903V48.4284H13.4802C13.3635 48.4284 13.2687 48.3335 13.2687 48.2169V25.7062C13.2687 24.886 12 24.886 12 25.7062V48.2169C12 49.0331 12.664 49.6971 13.4802 49.6971H40.7903V52.5686C40.8806 53.09 41.1813 53.2817 41.6922 53.1438L43.2432 52.4224L44.7941 53.1438C45.1779 53.3222 45.696 53.0402 45.696 52.5686V49.6971H53.8252C54.6414 49.6971 55.3054 49.0331 55.3054 48.2169V17.2824C55.3054 16.4662 54.6414 15.8022 53.8252 15.8022ZM40.6184 41.7665C39.9833 41.8224 39.9525 41.7884 40.008 41.1537C40.0933 40.1796 39.8692 39.6112 39.1169 38.9858C38.6021 38.5577 38.6022 38.491 39.1169 38.0629C39.8692 37.4375 40.0934 36.8691 40.008 35.8951C39.9525 35.2603 39.9833 35.2267 40.6184 35.2822C41.5926 35.3681 42.1602 35.1423 42.7841 34.389C43.2105 33.8744 43.2757 33.8744 43.7021 34.389C44.3262 35.1423 44.8937 35.3677 45.8679 35.2822C46.503 35.2263 46.5337 35.2603 46.4782 35.895C46.3929 36.8691 46.617 37.4374 47.3693 38.0628C47.884 38.4909 47.8843 38.5578 47.3693 38.9858C46.6169 39.6113 46.3928 40.1794 46.4781 41.1535C46.5339 41.7882 46.5029 41.8223 45.868 41.7665C45.4695 41.7314 45.0175 41.6917 44.6196 41.857C44.2345 42.0169 43.9638 42.3436 43.702 42.6597C43.5787 42.8086 43.3536 43.0803 43.243 43.129C43.1324 43.0803 42.9074 42.8086 42.784 42.6597C42.5223 42.3437 42.2516 42.0169 41.8664 41.857C41.4559 41.7318 41.0398 41.7016 40.6184 41.7665ZM43.5107 51.1477C43.341 51.0687 43.1453 51.0687 42.9756 51.1477L42.059 51.574V43.7631C42.36 44.094 42.7314 44.4013 43.2432 44.4013C43.7549 44.4013 44.1263 44.0941 44.4273 43.7632V51.574L43.5107 51.1477Z" fill="#05A18F"/>
<path d="M20.2265 24.9696H42.0947C42.9148 24.9696 42.9148 23.7009 42.0947 23.7009H20.2265C19.4063 23.7009 19.4063 24.9696 20.2265 24.9696Z" fill="#05A18F"/>
<path d="M47.713 28.1937C47.713 27.8433 47.4291 27.5593 47.0787 27.5593H20.2265C19.4063 27.5593 19.4063 28.828 20.2265 28.828H47.0788C47.4291 28.828 47.713 28.544 47.713 28.1937Z" fill="#05A18F"/>
<path d="M36.117 32.0518C36.117 31.7015 35.8331 31.4175 35.4827 31.4175H20.2265C19.4063 31.4175 19.4063 32.6862 20.2265 32.6862H35.4827C35.833 32.6862 36.117 32.4022 36.117 32.0518Z" fill="#05A18F"/>
<path d="M27.7872 40.8941C27.4414 40.8947 27.0954 40.8951 26.7496 40.8954C26.0842 40.8959 25.7179 40.7185 25.582 40.013C25.4579 39.3689 24.5288 39.4509 24.3586 40.013C24.2832 40.2619 23.9026 40.9745 23.5701 40.9162C23.3939 40.8853 23.317 40.6136 23.2518 40.4728C23.125 40.1989 23.0327 39.9085 22.9536 39.6175C22.6197 38.3882 22.553 37.1047 22.3441 35.8523C22.223 35.126 21.1159 35.3313 21.0981 36.0209C21.0412 38.2176 20.6821 40.3841 19.9001 42.4431C19.6099 43.2071 20.8359 43.5374 21.1234 42.7804C21.425 41.9865 21.6643 41.1736 21.8501 40.3486C21.9497 40.6492 22.0685 40.944 22.2136 41.2308C22.5841 41.963 23.3396 42.3961 24.1481 42.0705C24.4366 41.9543 24.6998 41.7511 24.9238 41.5039C25.524 42.196 26.4169 42.1646 27.25 42.1636C28.5057 42.162 29.7615 42.159 31.0174 42.1556C31.8337 42.1533 31.8352 40.8846 31.0174 40.8868C29.9407 40.8899 28.8639 40.8923 27.7872 40.8941Z" fill="#05A18F"/>
<path d="M43.2433 41.0021C44.6096 41.0021 45.7211 39.8906 45.7211 38.5243C45.7211 37.1581 44.6096 36.0466 43.2433 36.0466C41.8772 36.0466 40.7656 37.1582 40.7656 38.5243C40.7656 39.8905 41.8771 41.0021 43.2433 41.0021ZM43.2433 37.3153C43.91 37.3153 44.4524 37.8578 44.4524 38.5243C44.4524 39.1909 43.91 39.7333 43.2433 39.7333C42.5767 39.7333 42.0343 39.191 42.0343 38.5243C42.0343 37.8577 42.5767 37.3153 43.2433 37.3153Z" fill="#05A18F"/>
</g>
<defs>
<clipPath id="clip0">
<rect width="43.3054" height="43.3054" fill="white" transform="translate(12 12.8474)"/>
</clipPath>
</defs>
</svg>
